<svg width="31" height="30" viewBox="0 0 31 30" fill="none" xmlns="http://www.w3.org/2000/svg">
  <path d="M15.1704 7.30838C10.9005 7.30838 7.45636 10.7425 7.45636 15C7.45636 19.2575 10.9005 22.6916 15.1704 22.6916C19.4403 22.6916 22.8844 19.2575 22.8844 15C22.8844 10.7425 19.4403 7.30838 15.1704 7.30838ZM15.1704 20.0006C12.4111 20.0006 10.1553 17.758 10.1553 15C10.1553 12.242 12.4044 9.99944 15.1704 9.99944C17.9365 9.99944 20.1855 12.242 20.1855 15C20.1855 17.758 17.9297 20.0006 15.1704 20.0006ZM24.9993 6.99375C24.9993 7.99119 24.1936 8.7878 23.2 8.7878C22.1997 8.7878 21.4007 7.98449 21.4007 6.99375C21.4007 6.00301 22.2064 5.19971 23.2 5.19971C24.1936 5.19971 24.9993 6.00301 24.9993 6.99375ZM30.1084 8.81457C29.9943 6.41136 29.4437 4.28261 27.678 2.52873C25.919 0.774852 23.7841 0.225929 21.3739 0.105433C18.8898 -0.0351445 11.4443 -0.0351445 8.96023 0.105433C6.55673 0.219235 4.42177 0.768158 2.65607 2.52203C0.890362 4.27591 0.346552 6.40466 0.225705 8.80788C0.0847177 11.2847 0.0847177 18.7086 0.225705 21.1854C0.339838 23.5886 0.890362 25.7174 2.65607 27.4713C4.42177 29.2251 6.55001 29.7741 8.96023 29.8946C11.4443 30.0351 18.8898 30.0351 21.3739 29.8946C23.7841 29.7808 25.919 29.2318 27.678 27.4713C29.437 25.7174 29.9875 23.5886 30.1084 21.1854C30.2494 18.7086 30.2494 11.2914 30.1084 8.81457ZM26.8992 23.843C26.3756 25.1551 25.3618 26.1659 24.0392 26.6947C22.0587 27.478 17.3591 27.2972 15.1704 27.2972C12.9817 27.2972 8.27543 27.4713 6.30161 26.6947C4.98572 26.1726 3.97195 25.1618 3.44157 23.843C2.65607 21.8682 2.83734 17.1823 2.83734 15C2.83734 12.8177 2.66278 8.12507 3.44157 6.15698C3.96524 4.84492 4.97901 3.8341 6.30161 3.30525C8.28215 2.52203 12.9817 2.70278 15.1704 2.70278C17.3591 2.70278 22.0654 2.52873 24.0392 3.30525C25.3551 3.8274 26.3689 4.83822 26.8992 6.15698C27.6847 8.13176 27.5035 12.8177 27.5035 15C27.5035 17.1823 27.6847 21.8749 26.8992 23.843Z" fill="white"/>
</svg>
