<svg width="38" height="30" viewBox="0 0 38 30" fill="none" xmlns="http://www.w3.org/2000/svg">
  <path d="M33.3232 7.47654C33.3466 7.80464 33.3466 8.13283 33.3466 8.46093C33.3466 18.4687 25.7295 30 11.8076 30C7.51848 30 3.53413 28.7578 0.182556 26.6016C0.791954 26.6719 1.37783 26.6953 2.01068 26.6953C5.54968 26.6953 8.80754 25.5 11.4091 23.461C8.08099 23.3906 5.29191 21.211 4.33096 18.2109C4.79975 18.2812 5.26847 18.3281 5.7607 18.3281C6.44037 18.3281 7.12011 18.2343 7.75288 18.0703C4.28414 17.3671 1.68249 14.3203 1.68249 10.6406V10.5469C2.69027 11.1094 3.86224 11.461 5.10434 11.5078C3.06527 10.1484 1.72939 7.82809 1.72939 5.20307C1.72939 3.79685 2.10432 2.50779 2.76061 1.38278C6.48719 5.97652 12.0888 8.97647 18.37 9.30466C18.2528 8.74215 18.1825 8.15627 18.1825 7.57032C18.1825 3.3984 21.5575 0 25.7528 0C27.9325 0 29.9012 0.91406 31.284 2.39062C32.9949 2.06252 34.6355 1.42967 36.0887 0.562504C35.5262 2.32036 34.3309 3.79692 32.7606 4.73435C34.2841 4.57037 35.7606 4.1484 37.12 3.56253C36.0889 5.06246 34.7997 6.39835 33.3232 7.47654Z" fill="white"/>
</svg>