<svg width="33" height="39" viewBox="0 0 33 39" fill="none" xmlns="http://www.w3.org/2000/svg">
<path d="M11.6576 0C13.6879 0 15.4239 1.77461 15.4239 3.85V12.4309C16.889 11.0267 19.7007 10.8543 21.5206 12.9723C23.4825 11.7444 26.0768 12.7878 26.8758 14.3859C31.0989 13.6147 33 16.2719 33 20.625C33 20.861 32.9826 21.7659 32.9832 22C32.9977 27.3256 30.3136 28.6081 29.6905 32.6331C29.5353 33.6363 28.6687 38.5 27.6535 38.5H12.9131C11.3347 38.4991 9.82876 33.4633 9.14504 31.9287C8.02837 29.4463 4.93084 23.7292 2.50009 22.6875C0.936461 22.0174 0.00068786 20.8498 3.59669e-07 19.25C-0.00120277 16.309 3.01623 14.2869 5.74991 15.4585C6.46826 15.7664 7.18248 16.1728 7.8913 16.6748V3.85C7.8913 1.83477 9.65671 0 11.6576 0Z" fill="white"/>
</svg>
