<svg width="49" height="35" viewBox="0 0 49 35" fill="none" xmlns="http://www.w3.org/2000/svg">
<path d="M48.2735 5.39808C47.7065 3.27328 46.0358 1.59985 43.9145 1.03195C40.0696 0 24.6519 0 24.6519 0C24.6519 0 9.23424 0 5.38922 1.03195C3.26797 1.59994 1.59728 3.27328 1.03025 5.39808C0 9.24941 0 17.2849 0 17.2849C0 17.2849 0 25.3203 1.03025 29.1716C1.59728 31.2964 3.26797 32.9002 5.38922 33.4681C9.23424 34.5 24.6519 34.5 24.6519 34.5C24.6519 34.5 40.0695 34.5 43.9145 33.4681C46.0358 32.9002 47.7065 31.2964 48.2735 29.1716C49.3038 25.3203 49.3038 17.2849 49.3038 17.2849C49.3038 17.2849 49.3038 9.24941 48.2735 5.39808V5.39808ZM19.6094 24.5804V9.98928L32.4956 17.285L19.6094 24.5804V24.5804Z" fill="white"/>
</svg>
