<svg width="627" height="379" viewBox="0 0 627 379" fill="none" xmlns="http://www.w3.org/2000/svg">
<g clip-path="url(#clip0)">
<path d="M434.847 120.256H422.93C422.548 120.258 422.179 120.105 421.895 119.828C421.612 119.55 421.435 119.169 421.399 118.758L419.014 92.3673H438.764L436.378 118.758C436.342 119.168 436.165 119.55 435.882 119.827C435.599 120.105 435.23 120.258 434.847 120.256Z" fill="#E6E6E6"/>
<path d="M438.732 95.6875H419.045C418.637 95.687 418.246 95.5119 417.958 95.2007C417.67 94.8895 417.507 94.4675 417.507 94.0274V90.0432C417.507 89.6031 417.67 89.1812 417.958 88.87C418.246 88.5587 418.637 88.3837 419.045 88.3832H438.732C439.14 88.3837 439.531 88.5587 439.819 88.87C440.107 89.1812 440.269 89.6031 440.27 90.0432V94.0274C440.269 94.4675 440.107 94.8895 439.819 95.2007C439.531 95.5119 439.14 95.6869 438.732 95.6875Z" fill="#CCCCCC"/>
<path d="M295.415 91.9064H248.202V76.437C263.121 65.2309 276.339 66.205 293.728 77.3469L295.415 91.9064Z" fill="#236477"/>
<path d="M237.27 366.676L226.934 366.675L225.389 323.645L237.272 323.646L237.27 366.676Z" fill="#FFB8B8"/>
<path d="M239.905 377.49L206.578 377.489V377.034C206.578 375.195 206.914 373.374 207.566 371.676C208.217 369.977 209.173 368.434 210.377 367.133C211.582 365.833 213.012 364.802 214.586 364.098C216.16 363.395 217.847 363.033 219.55 363.033H219.551L239.906 363.034L239.905 377.49Z" fill="#2F2E41"/>
<path d="M295.487 366.676L305.823 366.675L307.369 323.645L295.485 323.646L295.487 366.676Z" fill="#FFB8B8"/>
<path d="M292.851 363.034L313.206 363.033H313.207C314.91 363.033 316.597 363.395 318.171 364.098C319.745 364.802 321.175 365.833 322.379 367.133C323.584 368.433 324.539 369.977 325.191 371.676C325.843 373.374 326.179 375.195 326.179 377.034V377.489L292.851 377.49L292.851 363.034Z" fill="#2F2E41"/>
<path d="M295.759 361.161C294.897 361.158 294.061 360.839 293.388 360.257C292.715 359.675 292.245 358.864 292.054 357.956L266.436 237.35C266.38 237.044 266.225 236.768 266 236.573C265.774 236.377 265.491 236.274 265.202 236.282H265.196C264.905 236.276 264.622 236.381 264.397 236.579C264.171 236.777 264.018 237.055 263.964 237.363L240.439 357.156C240.255 358.072 239.787 358.894 239.112 359.484C238.437 360.074 237.596 360.398 236.727 360.401H225.52C225.003 360.401 224.492 360.287 224.017 360.066C223.542 359.845 223.114 359.521 222.76 359.115C222.405 358.709 222.131 358.229 221.955 357.704C221.778 357.18 221.703 356.622 221.733 356.065L230.08 204.232L233.439 203.16L233.502 203.161L299.48 203.783L313.532 355.449C313.581 355.99 313.53 356.536 313.381 357.055C313.233 357.575 312.99 358.057 312.667 358.474C312.344 358.891 311.947 359.234 311.5 359.484C311.052 359.733 310.563 359.884 310.061 359.928L296.063 361.148C295.961 361.157 295.86 361.161 295.759 361.161Z" fill="#2F2E41"/>
<path d="M268.513 64.1815C279.949 64.1815 289.219 54.1752 289.219 41.8318C289.219 29.4885 279.949 19.4822 268.513 19.4822C257.076 19.4822 247.806 29.4885 247.806 41.8318C247.806 54.1752 257.076 64.1815 268.513 64.1815Z" fill="#FFB8B8"/>
<path d="M255.828 220.879C252.195 220.928 248.577 220.378 245.098 219.249C242.003 218.242 239.133 216.562 236.662 214.312C234.192 212.063 232.174 209.291 230.733 206.169C230.277 205.229 230.176 204.135 230.451 203.116C232.735 194.703 243.77 150.974 236.729 116.212C235.735 111.383 235.653 106.387 236.486 101.523C237.32 96.6583 239.053 92.0249 241.581 87.899C244.051 83.8054 247.259 80.2907 251.014 77.5644C254.77 74.838 258.996 72.956 263.44 72.0306L263.44 72.0297C264.608 71.7836 265.782 71.5818 266.929 71.429C271.842 70.7764 276.827 71.3037 281.529 72.9733C286.23 74.6429 290.532 77.4134 294.125 81.0867C297.826 84.8321 300.713 89.4141 302.581 94.5049C304.449 99.5956 305.251 105.069 304.93 110.533L299.518 204.263C299.481 204.966 299.275 205.646 298.92 206.237C298.566 206.828 298.075 207.309 297.497 207.633C291.264 211.158 272.542 220.879 255.828 220.879Z" fill="#3F3D56"/>
<path d="M291.905 25.3805C289.754 19.5459 285.814 14.684 280.743 11.6064C275.672 8.52888 269.776 7.4218 264.039 8.46999L270.568 14.1644C262.456 14.4592 253.918 13.8323 248.126 19.9693C249.97 19.9141 252.387 24.1709 254.23 24.1157C250.783 24.1893 247.657 26.8036 246.135 30.1426C244.724 33.5729 244.394 37.4076 245.195 41.0595C245.876 44.7077 251.07 53.2545 252.468 56.6564C252.228 47.7659 268.444 26.5599 276.362 28.773C272.339 30.3841 268.848 33.245 266.329 36.9947C271.716 34.0603 277.809 32.9843 283.782 33.9126C285.145 34.2502 286.552 34.3352 287.942 34.164C288.794 33.9821 289.589 33.5675 290.25 32.9597C290.911 32.352 291.417 31.5714 291.719 30.6926C292.021 29.8137 292.109 28.866 291.976 27.9398C291.842 27.0137 291.49 26.1401 290.954 25.4024L291.905 25.3805Z" fill="#2F2E41"/>
<path d="M254.401 215.251C253.878 215.25 253.361 215.132 252.882 214.905L213.594 196.396C212.76 196.01 212.082 195.311 211.687 194.429C211.291 193.547 211.204 192.54 211.442 191.594L237.45 85.5478C237.934 83.5745 238.777 81.7252 239.931 80.1081C241.085 78.491 242.526 77.1385 244.17 76.1299C245.814 75.1212 247.628 74.4767 249.506 74.2339C251.383 73.9912 253.287 74.1551 255.105 74.7162L265.505 77.9197L258.184 211.394C258.146 212.052 257.962 212.691 257.647 213.257C257.332 213.822 256.896 214.297 256.374 214.642C255.782 215.038 255.098 215.249 254.401 215.251Z" fill="#236477"/>
<path d="M327.115 191.593L325.386 184.559L322.883 174.331L321.677 169.426L319.173 159.226L301.106 85.5457C300.624 83.5717 299.781 81.7214 298.628 80.1034C297.475 78.4855 296.033 77.1325 294.389 76.1239C292.745 75.1152 290.93 74.4712 289.052 74.2297C287.174 73.9881 285.27 74.1538 283.452 74.7172L273.057 77.9202L278.208 171.801L278.739 181.602L279.076 187.78V187.789L279.616 197.535L280.375 211.394C280.437 212.434 280.862 213.411 281.564 214.127C282.266 214.843 283.194 215.245 284.16 215.252C284.682 215.249 285.199 215.131 285.678 214.906L324.965 196.398C325.8 196.011 326.478 195.312 326.873 194.429C327.268 193.546 327.354 192.539 327.115 191.593Z" fill="#236477"/>
<path d="M321.676 169.426L278.739 181.601L278.207 171.801L319.173 159.225L321.676 169.426Z" fill="#CCCCCC"/>
<path d="M325.386 184.559L279.615 197.535L279.076 187.789V187.78L322.882 174.331L325.386 184.559Z" fill="#CCCCCC"/>
<path d="M259.821 173.912L259.289 183.531L217.178 169.99L219.647 159.926L259.821 173.912Z" fill="#CCCCCC"/>
<path d="M258.943 189.864L215.971 174.895L213.501 184.987L258.42 199.428L258.943 189.864Z" fill="#CCCCCC"/>
<path d="M216.72 199.923C218.002 199.562 219.194 198.902 220.213 197.99C221.233 197.078 222.054 195.936 222.62 194.644C223.187 193.352 223.483 191.942 223.49 190.513C223.497 189.084 223.213 187.671 222.659 186.373L242.86 117.92L228.535 114.682L210.014 181.795C208.055 182.944 206.556 184.829 205.799 187.092C205.042 189.355 205.08 191.839 205.907 194.074C206.734 196.308 208.291 198.138 210.284 199.216C212.277 200.294 214.567 200.545 216.72 199.923Z" fill="#FFB8B8"/>
<path d="M243.421 84.2679C247.535 84.7208 249.848 89.7127 248.826 95.9283L243.918 125.755C243.55 127.991 241.845 129.762 240.428 129.379L223.828 124.901C222.55 124.556 222.08 122.597 222.804 120.637L232.769 93.6535C234.934 87.7935 239.433 83.8288 243.421 84.2679Z" fill="#3F3D56"/>
<path d="M268.437 5.13324e-10C275.445 0.000811311 282.177 2.94563 287.209 8.21088C292.241 13.4761 295.176 20.6484 295.394 28.2089H300.473C300.921 28.2089 301.35 28.4007 301.666 28.742C301.982 29.0833 302.16 29.5461 302.16 30.0288V37.3085C302.16 37.7912 301.982 38.2541 301.666 38.5954C301.35 38.9367 300.921 39.1284 300.473 39.1285H243.144C242.697 39.1284 242.268 38.9367 241.952 38.5954C241.636 38.2541 241.458 37.7912 241.458 37.3085V29.1188C241.458 25.2948 242.156 21.5083 243.512 17.9755C244.867 14.4426 246.855 11.2326 249.36 8.52865C251.865 5.82472 254.839 3.67983 258.112 2.21648C261.385 0.753134 264.894 -2.27043e-05 268.437 5.13324e-10Z" fill="#236477"/>
<path d="M271.66 179.995H259.742C259.36 179.997 258.991 179.844 258.708 179.566C258.425 179.289 258.248 178.908 258.212 178.497L255.826 152.106H275.576L273.191 178.496C273.155 178.907 272.978 179.289 272.695 179.566C272.411 179.844 272.042 179.997 271.66 179.995Z" fill="#E6E6E6"/>
<path d="M275.544 155.426H255.857C255.45 155.426 255.059 155.251 254.77 154.939C254.482 154.628 254.32 154.206 254.319 153.766V149.782C254.32 149.342 254.482 148.92 254.77 148.609C255.059 148.298 255.45 148.122 255.857 148.122H275.544C275.952 148.122 276.343 148.298 276.631 148.609C276.92 148.92 277.082 149.342 277.082 149.782V153.766C277.082 154.206 276.92 154.628 276.631 154.939C276.343 155.251 275.952 155.426 275.544 155.426Z" fill="#CCCCCC"/>
<path d="M265.957 165.842C266.42 165.9 266.879 165.997 267.328 166.133L299.066 136.755L297.211 125.977L311.917 120.828L316.919 139.566C317.323 141.079 317.262 142.694 316.743 144.166C316.225 145.639 315.278 146.891 314.045 147.733L273.849 175.187C273.878 177.126 273.358 179.029 272.36 180.642C271.362 182.256 269.933 183.503 268.262 184.218C266.592 184.933 264.759 185.082 263.008 184.645C261.257 184.209 259.671 183.207 258.46 181.773C257.249 180.34 256.472 178.543 256.23 176.62C255.989 174.698 256.296 172.742 257.11 171.013C257.924 169.283 259.206 167.862 260.786 166.939C262.367 166.015 264.17 165.633 265.957 165.842V165.842Z" fill="#FFB8B8"/>
<path d="M299.15 86.7316C303.544 85.4041 307.934 89.0137 309.405 95.1633L316.465 124.674C316.994 126.886 315.966 129.237 314.361 129.486L295.554 132.405C294.107 132.63 292.832 131.028 292.779 128.919L292.049 99.879C291.89 93.5724 294.89 88.0187 299.15 86.7316Z" fill="#3F3D56"/>
<path d="M551.932 275.237C543.273 262.806 536.428 249.017 531.634 234.351C531.357 233.473 531.376 232.518 531.69 231.655C532.004 230.792 532.591 230.077 533.347 229.638L562.977 212.502C563.457 212.222 563.989 212.065 564.533 212.041C565.077 212.017 565.62 212.127 566.118 212.364C566.626 212.602 567.077 212.962 567.437 213.417C567.796 213.872 568.055 214.409 568.193 214.988C571.642 229.121 578.125 242.18 587.117 253.107C587.487 253.552 587.758 254.082 587.91 254.657C588.062 255.232 588.09 255.837 587.992 256.426C587.898 257.005 587.683 257.553 587.363 258.029C587.043 258.505 586.627 258.896 586.146 259.172L556.516 276.308C555.758 276.744 554.881 276.876 554.042 276.68C553.202 276.484 552.455 275.972 551.932 275.237Z" fill="#CCCCCC"/>
<path d="M553.954 273.597C554.113 273.812 554.337 273.96 554.587 274.015C554.836 274.071 555.096 274.031 555.321 273.902L584.952 256.765C585.096 256.684 585.22 256.569 585.316 256.427C585.411 256.285 585.475 256.122 585.502 255.949C585.533 255.767 585.524 255.579 585.477 255.401C585.429 255.223 585.344 255.059 585.228 254.923C575.971 243.673 569.297 230.23 565.747 215.681C565.706 215.501 565.627 215.334 565.516 215.192C565.405 215.051 565.265 214.939 565.108 214.866C564.96 214.794 564.798 214.761 564.635 214.768C564.473 214.775 564.314 214.823 564.172 214.908L534.542 232.044C534.318 232.175 534.143 232.386 534.047 232.642C533.952 232.897 533.942 233.18 534.02 233.443C538.727 247.847 545.45 261.388 553.954 273.597V273.597Z" fill="white"/>
<path d="M564.923 236.956L548.785 244.645C548.171 244.937 547.475 244.954 546.85 244.692C546.225 244.431 545.721 243.912 545.45 243.25L545.05 242.274C544.78 241.612 544.765 240.861 545.007 240.186C545.249 239.511 545.73 238.968 546.343 238.675L562.481 230.986C563.095 230.694 563.79 230.677 564.416 230.939C565.041 231.2 565.545 231.719 565.816 232.381L566.215 233.357C566.485 234.019 566.501 234.77 566.259 235.445C566.016 236.12 565.536 236.663 564.923 236.956Z" fill="#CCCCCC"/>
<path d="M570.824 248.786L554.686 256.475C554.072 256.766 553.377 256.783 552.751 256.522C552.126 256.26 551.622 255.742 551.351 255.08L550.952 254.104C550.682 253.441 550.666 252.69 550.908 252.015C551.151 251.341 551.631 250.797 552.244 250.504L568.382 242.815C568.996 242.524 569.692 242.507 570.317 242.768C570.942 243.03 571.446 243.548 571.717 244.21L572.117 245.186C572.387 245.849 572.402 246.6 572.16 247.274C571.918 247.949 571.437 248.493 570.824 248.786Z" fill="#CCCCCC"/>
<path d="M532.976 238.929C531.862 238.156 530.919 237.129 530.213 235.92C529.508 234.71 529.056 233.349 528.89 231.931C528.724 230.513 528.849 229.074 529.254 227.713C529.66 226.353 530.337 225.105 531.237 224.057L524.432 119.814L544.036 121.866L544.574 223.952C546.104 225.702 546.986 227.996 547.054 230.401C547.121 232.806 546.368 235.154 544.938 237.001C543.509 238.847 541.501 240.063 539.297 240.418C537.092 240.774 534.843 240.244 532.976 238.929L532.976 238.929Z" fill="#A0616A"/>
<path d="M528.869 154.841C528.41 154.485 528.031 154.022 527.76 153.486C527.488 152.951 527.332 152.356 527.302 151.747L525.865 123.65C525.723 120.867 526.541 118.125 528.161 115.954C529.781 113.782 532.088 112.335 534.638 111.891C537.188 111.447 539.8 112.038 541.97 113.55C544.141 115.061 545.716 117.387 546.391 120.077L552.702 145.197C552.964 146.245 552.83 147.362 552.33 148.304C551.829 149.246 551.003 149.935 550.033 150.22L532.083 155.473C531.538 155.634 530.966 155.661 530.409 155.551C529.853 155.442 529.327 155.199 528.869 154.841Z" fill="#3F3D56"/>
<path d="M495.456 367.087H485.12L480.203 324.056H495.458L495.456 367.087Z" fill="#A0616A"/>
<path d="M477.737 363.899H497.671V377.445H465.187C465.187 375.666 465.511 373.905 466.142 372.261C466.773 370.618 467.697 369.124 468.863 367.866C470.028 366.609 471.412 365.611 472.934 364.93C474.457 364.249 476.089 363.899 477.737 363.899Z" fill="#2F2E41"/>
<path d="M534.238 367.087H523.902L518.985 324.056H534.24L534.238 367.087Z" fill="#A0616A"/>
<path d="M516.52 363.899H536.453V377.445H503.969C503.969 375.666 504.293 373.905 504.924 372.261C505.555 370.618 506.479 369.124 507.645 367.866C508.81 366.609 510.194 365.611 511.717 364.93C513.239 364.249 514.871 363.899 516.52 363.899Z" fill="#2F2E41"/>
<path d="M494.968 345.409L483.589 344.823C482.62 344.774 481.705 344.325 481.033 343.57C480.361 342.814 479.983 341.81 479.976 340.762C476.976 290.788 472.822 237.202 479.182 216.501C479.178 215.911 479.293 215.327 479.517 214.789C479.742 214.252 480.071 213.773 480.483 213.385C480.895 212.997 481.38 212.71 481.904 212.544C482.429 212.377 482.98 212.335 483.521 212.419L529.042 219.551C529.941 219.687 530.765 220.169 531.362 220.908C531.959 221.647 532.288 222.593 532.291 223.573C538.102 248.084 538.365 292.532 538.145 338.715C538.149 339.255 538.054 339.791 537.865 340.291C537.676 340.792 537.397 341.247 537.044 341.63C536.691 342.014 536.272 342.318 535.81 342.526C535.348 342.734 534.852 342.841 534.351 342.841H522.085C521.18 342.845 520.303 342.498 519.615 341.863C518.928 341.228 518.474 340.348 518.337 339.382L510.768 287.453C510.658 286.693 510.296 286.002 509.751 285.508C509.205 285.013 508.512 284.749 507.799 284.763C507.087 284.777 506.403 285.069 505.874 285.585C505.346 286.101 505.008 286.806 504.924 287.569L498.916 341.806C498.802 342.799 498.357 343.714 497.664 344.378C496.97 345.043 496.076 345.411 495.148 345.414C495.088 345.414 495.028 345.412 494.968 345.409Z" fill="#2F2E41"/>
<path d="M502.979 223.579C492.947 217.563 485.108 215.982 481.329 215.575C480.826 215.522 480.339 215.361 479.897 215.099C479.454 214.837 479.065 214.481 478.754 214.053C478.436 213.621 478.203 213.124 478.068 212.592C477.933 212.06 477.899 211.504 477.969 210.957L488.877 123.555C489.505 118.441 491.334 113.587 494.192 109.452C497.049 105.318 500.839 102.041 505.201 99.9347C509.424 97.8397 514.073 96.9456 518.706 97.3376C523.339 97.7296 527.802 99.3945 531.67 102.174C532.044 102.442 532.411 102.716 532.771 102.996C537.226 106.519 540.615 111.387 542.51 116.985C544.406 122.584 544.724 128.663 543.424 134.456C536.736 163.989 534.438 212.406 534.045 221.812C534.015 222.614 533.764 223.388 533.327 224.036C532.889 224.685 532.283 225.179 531.585 225.456C527.47 227.071 523.127 227.905 518.749 227.923C513.234 227.959 507.803 226.463 502.979 223.579Z" fill="#3F3D56"/>
<path d="M512.101 88.067C523.538 88.067 532.808 78.0607 532.808 65.7173C532.808 53.374 523.538 43.3677 512.101 43.3677C500.665 43.3677 491.395 53.374 491.395 65.7173C491.395 78.0607 500.665 88.067 512.101 88.067Z" fill="#A0616A"/>
<path d="M526.755 83.3994C522.892 87.8408 515.718 85.4565 515.215 79.3891C515.176 78.918 515.178 78.4439 515.224 77.9734C515.484 75.2858 516.922 72.8458 516.578 70.008C516.5 69.3017 516.256 68.6286 515.869 68.0525C512.791 63.6034 505.565 70.0425 502.66 66.0149C500.878 63.5452 502.972 59.6568 501.605 56.8966C499.801 53.2535 494.457 55.0506 491.106 53.0555C487.377 50.8356 487.6 44.6608 490.055 40.905C493.048 36.3246 498.296 33.8805 503.479 33.5283C508.662 33.176 513.809 34.6882 518.648 36.7236C524.146 39.0361 529.598 42.2321 532.981 47.4498C537.095 53.7951 537.491 62.3258 535.434 69.7455C534.182 74.2589 529.91 79.7726 526.755 83.3994Z" fill="#2F2E41"/>
<path d="M543.153 105.128C542.79 103.29 539.679 100.779 535.228 98.7311C528.073 95.6031 520.335 94.3436 512.643 95.0552C504.951 95.7668 497.524 98.4293 490.967 102.826C490.509 102.852 490.072 103.041 489.724 103.361C489.375 103.682 489.133 104.117 489.036 104.6L474.063 176.078L472.115 185.387L470.826 191.547L468.878 200.829L467.841 205.788C467.775 206.105 467.772 206.434 467.833 206.752C467.894 207.071 468.017 207.371 468.194 207.634C468.371 207.897 468.598 208.116 468.86 208.276C469.122 208.436 469.413 208.534 469.713 208.564L534.368 214.588C534.427 214.588 534.495 214.597 534.554 214.597C535.087 214.593 535.599 214.372 535.987 213.976C536.375 213.581 536.61 213.042 536.644 212.467L537.26 202.358L537.918 191.547L538.204 186.861L538.853 176.078L543.161 105.246V105.183L543.153 105.128Z" fill="#236477"/>
<path d="M437.065 109.627C437.169 110.118 437.236 110.617 437.267 111.12L473.483 133.671L482.286 128.201L491.671 141.461L472.839 155.948L431.521 120.767C429.836 121.44 428.001 121.543 426.26 121.063C424.519 120.583 422.955 119.542 421.775 118.079C420.596 116.616 419.857 114.8 419.657 112.873C419.457 110.946 419.805 108.998 420.655 107.29C421.505 105.581 422.817 104.193 424.417 103.309C426.016 102.425 427.827 102.087 429.608 102.341C431.39 102.594 433.057 103.428 434.389 104.729C435.721 106.031 436.655 107.739 437.065 109.627H437.065Z" fill="#A0616A"/>
<path d="M474.776 131.753C474.716 131.146 474.783 130.532 474.971 129.957C475.16 129.382 475.466 128.859 475.867 128.429L494.299 108.529C496.126 106.558 498.563 105.386 501.143 105.24C503.722 105.093 506.26 105.983 508.268 107.737C510.275 109.491 511.61 111.985 512.015 114.739C512.42 117.492 511.866 120.31 510.459 122.648L497.333 144.48C496.784 145.39 495.924 146.028 494.94 146.254C493.956 146.48 492.929 146.276 492.085 145.686L476.484 134.759C476.01 134.427 475.61 133.985 475.314 133.465C475.018 132.945 474.835 132.36 474.776 131.753Z" fill="#3F3D56"/>
<path d="M538.853 176.078L538.204 186.861L472.115 185.387L474.063 176.078H538.853Z" fill="#CCCCCC"/>
<path d="M537.918 191.547L537.26 202.358L468.878 200.829L470.826 191.547H537.918Z" fill="#CCCCCC"/>
<path d="M512.507 22.2941C505.499 22.2949 498.766 25.2398 493.735 30.505C488.703 35.7703 485.768 42.9425 485.55 50.503H480.47C480.023 50.503 479.594 50.6948 479.278 51.0361C478.962 51.3774 478.784 51.8403 478.784 52.3229V59.6027C478.784 60.0853 478.962 60.5482 479.278 60.8895C479.594 61.2308 480.023 61.4226 480.47 61.4226H537.8C538.247 61.4226 538.676 61.2308 538.992 60.8895C539.308 60.5482 539.486 60.0853 539.486 59.6027V51.4129C539.486 47.589 538.788 43.8025 537.432 40.2696C536.076 36.7367 534.089 33.5267 531.584 30.8228C529.079 28.1188 526.105 25.974 522.832 24.5106C519.558 23.0473 516.05 22.2941 512.507 22.2941Z" fill="#236477"/>
<path d="M91.1491 312.169C85.8133 314.193 80.0845 314.7 74.5144 313.641C68.9444 312.582 63.7209 309.993 59.3472 306.122C48.2085 296.032 44.7162 279.407 41.8746 264.014L33.4697 218.483L51.0661 231.561C63.7204 240.965 76.6598 250.671 85.4216 264.293C94.1834 277.915 98.0079 296.51 90.9681 311.25" fill="#E6E6E6"/>
<path d="M89.6446 367.293C91.4256 353.291 93.2569 339.109 92.0076 324.957C90.8981 312.388 87.3455 300.112 80.1128 290.047C76.2737 284.714 71.6022 280.145 66.3084 276.545C64.9279 275.605 63.6574 277.966 65.0318 278.903C74.1917 285.151 81.2765 294.377 85.2647 305.252C89.6697 317.345 90.3771 330.527 89.618 343.373C89.159 351.142 88.1861 358.86 87.2057 366.567C87.1284 366.916 87.1766 367.283 87.3406 367.595C87.5045 367.906 87.772 368.139 88.0889 368.246C88.4123 368.34 88.757 368.293 89.0482 368.115C89.3394 367.936 89.5537 367.641 89.6446 367.293Z" fill="#F2F2F2"/>
<path d="M72.4905 342.516C70.2021 346.27 67.0565 349.325 63.3569 351.386C59.6572 353.447 55.5281 354.444 51.3674 354.283C40.6745 353.735 31.7601 345.68 23.7354 338.033L0 315.414L15.7089 314.602C27.0058 314.019 38.5942 313.474 49.3541 317.235C60.114 320.995 70.0374 330.044 72.0049 342.065" fill="#E6E6E6"/>
<path d="M94.6776 375.342C86.1054 358.971 76.1625 340.776 58.396 334.961C53.456 333.349 48.2762 332.772 43.1354 333.26C41.5152 333.411 41.9198 336.106 43.537 335.956C52.1542 335.184 60.7546 337.639 67.8906 342.91C74.7574 347.955 80.1039 354.969 84.6292 362.406C87.401 366.962 89.8839 371.711 92.3672 376.454C93.1608 377.97 95.4805 376.875 94.6776 375.342Z" fill="#F2F2F2"/>
<path d="M626.156 379H25.8851C25.6615 379 25.447 378.904 25.2889 378.733C25.1308 378.563 25.042 378.331 25.042 378.09C25.042 377.849 25.1308 377.617 25.2889 377.447C25.447 377.276 25.6615 377.18 25.8851 377.18H626.156C626.38 377.18 626.594 377.276 626.753 377.447C626.911 377.617 627 377.849 627 378.09C627 378.331 626.911 378.563 626.753 378.733C626.594 378.904 626.38 379 626.156 379Z" fill="#CCCCCC"/>
</g>
<defs>
<clipPath id="clip0">
<rect width="627" height="379" fill="white"/>
</clipPath>
</defs>
</svg>
