<svg width="300" height="274" viewBox="0 0 300 274" fill="none" xmlns="http://www.w3.org/2000/svg">
<g clip-path="url(#clip0)">
<path d="M272.349 0.178955H0.115723V202.448H272.349V0.178955Z" fill="#E6E6E6"/>
<path d="M264.565 25.5486H7.90039V190.481H264.565V25.5486Z" fill="white"/>
<path d="M272.233 0H0V13.4174H272.233V0Z" fill="#236477"/>
<path d="M8.59474 9.34631C9.7786 9.34631 10.7383 8.23293 10.7383 6.8595C10.7383 5.48607 9.7786 4.37268 8.59474 4.37268C7.41088 4.37268 6.45117 5.48607 6.45117 6.8595C6.45117 8.23293 7.41088 9.34631 8.59474 9.34631Z" fill="white"/>
<path d="M16.731 9.34631C17.9148 9.34631 18.8745 8.23293 18.8745 6.8595C18.8745 5.48607 17.9148 4.37268 16.731 4.37268C15.5471 4.37268 14.5874 5.48607 14.5874 6.8595C14.5874 8.23293 15.5471 9.34631 16.731 9.34631Z" fill="white"/>
<path d="M24.8672 9.34631C26.0511 9.34631 27.0108 8.23293 27.0108 6.8595C27.0108 5.48607 26.0511 4.37268 24.8672 4.37268C23.6833 4.37268 22.7236 5.48607 22.7236 6.8595C22.7236 8.23293 23.6833 9.34631 24.8672 9.34631Z" fill="white"/>
<path d="M97.1729 42.6617H31.2222V173.368H97.1729V42.6617Z" fill="#E6E6E6"/>
<path d="M163.517 42.6617H108.558V78.6402H163.517V42.6617Z" fill="#236477"/>
<path d="M163.517 88.6594H108.558V127.37H163.517V88.6594Z" fill="#E6E6E6"/>
<path d="M163.517 137.39H108.558V173.368H163.517V137.39Z" fill="#E6E6E6"/>
<path d="M241.244 42.6617H175.293V99.623H241.244V42.6617Z" fill="#E6E6E6"/>
<path d="M241.244 116.407H175.293V173.368H241.244V116.407Z" fill="#E6E6E6"/>
<path d="M215.837 103.715V91.4521C215.837 87.094 217.33 82.9143 219.986 79.8327C222.642 76.751 226.245 75.0198 230.002 75.0198C233.758 75.0198 237.361 76.751 240.017 79.8327C242.674 82.9143 244.166 87.094 244.166 91.4521V103.715C244.165 104.3 243.965 104.861 243.608 105.275C243.251 105.689 242.768 105.922 242.263 105.922H217.74C217.236 105.922 216.752 105.689 216.395 105.275C216.039 104.861 215.838 104.3 215.837 103.715Z" fill="#2F2E41"/>
<path d="M250.946 263.303L245.95 264.907L238.239 243.315L245.613 240.948L250.946 263.303Z" fill="#FFB8B8"/>
<path d="M241.987 264.397L251.622 261.303L253.3 268.341L237.599 273.382C237.379 272.458 237.317 271.492 237.419 270.541C237.52 269.589 237.782 268.67 238.189 267.835C238.596 267.001 239.141 266.268 239.793 265.678C240.445 265.088 241.19 264.653 241.987 264.397Z" fill="#2F2E41"/>
<path d="M198.861 267.761H193.678L191.211 244.566H198.862L198.861 267.761Z" fill="#FFB8B8"/>
<path d="M189.975 266.043H199.971V273.345H183.68C183.68 272.386 183.843 271.437 184.159 270.551C184.476 269.665 184.939 268.86 185.524 268.182C186.108 267.503 186.802 266.966 187.566 266.599C188.329 266.232 189.148 266.043 189.975 266.043Z" fill="#2F2E41"/>
<path d="M192.61 138.129C192.98 138.708 193.455 139.187 194.002 139.53C194.548 139.873 195.153 140.074 195.774 140.116C196.394 140.159 197.015 140.044 197.593 139.778C198.171 139.513 198.692 139.103 199.118 138.579L212.898 145.769L211.644 136.777L198.751 131.328C197.944 130.554 196.921 130.151 195.875 130.195C194.83 130.238 193.834 130.726 193.077 131.564C192.32 132.402 191.854 133.534 191.768 134.744C191.682 135.953 191.982 137.158 192.61 138.129H192.61Z" fill="#FFB8B8"/>
<path d="M221.241 192.202C216.912 192.202 212.43 191.454 208.663 189.229C206.663 188.071 204.891 186.447 203.457 184.458C202.023 182.469 200.958 180.158 200.329 177.67C198.367 170.46 200.841 163.376 203.235 156.526C204.718 152.281 206.119 148.272 206.482 144.32L206.609 142.917C207.175 136.615 207.664 131.172 210.371 129.131C211.774 128.073 213.66 128.013 216.138 128.946L239.412 137.717L238.556 188.971L238.415 189.026C238.293 189.074 230.089 192.202 221.241 192.202Z" fill="#2F2E41"/>
<path d="M215.731 112.99C215.731 112.99 227.147 109.066 236.026 110.537C236.026 110.537 230.953 142.911 232.644 153.703C234.335 164.494 203.258 157.872 209.601 147.571L211.715 135.308C211.715 135.308 207.487 130.403 211.292 124.517L215.731 112.99Z" fill="#236477"/>
<path d="M210.117 191.231L196.047 188.17L200.959 144.315C201.289 143.09 208.899 115.304 212.355 113.801C214.864 112.775 217.43 111.948 220.035 111.325L220.536 111.209L217.715 116.118L206.483 147.342L210.117 191.231Z" fill="#2F2E41"/>
<path d="M202.786 262.387L184.607 258.872L194.809 210.544L209.989 144.453L210.139 145.627C210.151 145.714 211.569 154.348 232.612 150.517L232.797 150.484L232.848 150.693L258.281 254.946L237.567 258.951L218.675 182.888L202.786 262.387Z" fill="#2F2E41"/>
<path d="M227.982 199.438L227.993 199.067C228.006 198.655 229.257 157.681 228.839 141.202C228.42 124.667 233.034 110.348 233.081 110.205L233.118 110.09L233.22 110.056C239.19 108.077 244.369 113.983 244.421 114.043L244.494 114.127L242.794 130.401L250.073 189.577L227.982 199.438Z" fill="#2F2E41"/>
<path d="M227.091 105.637C232.826 105.637 237.476 100.243 237.476 93.5892C237.476 86.9355 232.826 81.5416 227.091 81.5416C221.355 81.5416 216.706 86.9355 216.706 93.5892C216.706 100.243 221.355 105.637 227.091 105.637Z" fill="#FFB8B8"/>
<path d="M212.486 92.433C212.49 88.9867 213.671 85.6827 215.772 83.2459C217.872 80.809 220.72 79.4382 223.691 79.4343H225.805C228.776 79.4382 231.624 80.809 233.724 83.2459C235.825 85.6827 237.006 88.9868 237.01 92.433V92.6783H232.542L231.018 87.7281L230.713 92.6783H228.404L227.635 90.1807L227.482 92.6783H212.486V92.433Z" fill="#2F2E41"/>
<path d="M226.069 107.301C225.859 106.972 225.734 106.58 225.707 106.172C225.681 105.763 225.755 105.355 225.92 104.992C228.16 100.049 231.297 90.9145 227.133 85.2812L226.834 84.8765H238.921V105.929L227.941 108.177C227.83 108.2 227.717 108.211 227.604 108.211C227.304 108.211 227.009 108.129 226.742 107.971C226.475 107.813 226.244 107.583 226.069 107.301Z" fill="#2F2E41"/>
<path d="M177.404 20.3791C168.946 12.0994 158.596 6.85009 147.614 5.27008C136.631 3.69007 125.489 5.84745 115.544 11.4797C105.599 17.1119 97.2797 25.9762 91.598 36.9938C85.9164 48.0115 83.1175 60.7075 83.542 73.5368C83.9666 86.3662 87.5962 98.7759 93.9893 109.256C100.382 119.736 109.263 127.834 119.551 132.565C129.839 137.296 141.091 138.456 151.937 135.904C162.782 133.352 172.755 127.197 180.641 118.19L250.667 186.738C251.732 187.783 253.112 188.295 254.502 188.16C255.892 188.024 257.18 187.254 258.08 186.018C258.981 184.782 259.422 183.181 259.305 181.568C259.189 179.955 258.525 178.462 257.459 177.417L257.452 177.41L187.426 108.861C195.561 95.3162 199.043 78.7354 197.189 62.3679C195.335 46.0004 188.279 31.0259 177.404 20.3791ZM172.89 102.26C167.435 109.761 160.185 115.216 152.057 117.936C143.929 120.656 135.289 120.519 127.228 117.543C119.167 114.566 112.048 108.883 106.772 101.212C101.495 93.5419 98.2973 84.2284 97.5832 74.4496C96.8691 64.6708 98.6706 54.8659 102.76 46.2749C106.849 37.6839 113.042 30.6925 120.556 26.1849C128.071 21.6773 136.568 19.856 144.975 20.9512C153.381 22.0464 161.319 26.009 167.784 32.3378H167.784C172.077 36.54 175.614 41.682 178.194 47.4701C180.774 53.2583 182.345 59.5792 182.82 66.0721C183.294 72.565 182.661 79.1026 180.957 85.3118C179.253 91.5209 176.512 97.2799 172.89 102.26Z" fill="#3F3D56"/>
<path opacity="0.3" d="M112.618 108.184C104.413 100.151 99.1122 88.8322 97.7676 76.4748C96.4231 64.1174 99.1335 51.6253 105.361 41.479C104.543 42.4345 103.752 43.4351 102.989 44.4809C99.3667 49.461 96.6255 55.2201 94.9218 61.4292C93.2181 67.6384 92.5853 74.176 93.0594 80.6689C93.5336 87.1618 95.1054 93.4827 97.6852 99.2709C100.265 105.059 103.802 110.201 108.095 114.403C112.388 118.605 117.352 121.786 122.704 123.762C128.056 125.739 133.691 126.473 139.288 125.923C144.885 125.373 150.333 123.549 155.323 120.556C160.312 117.563 164.744 113.46 168.366 108.479C169.128 107.432 169.845 106.36 170.518 105.262C162.944 114.09 152.786 119.292 142.06 119.833C131.334 120.374 120.824 116.216 112.618 108.184Z" fill="black"/>
<path d="M230.425 159.19C231.029 159.362 231.658 159.377 232.267 159.236C232.877 159.095 233.452 158.8 233.953 158.373C234.454 157.946 234.868 157.397 235.166 156.764C235.464 156.131 235.639 155.43 235.678 154.711L250.237 150.023L244.319 144.037L231.401 149.406C230.354 149.41 229.345 149.859 228.565 150.668C227.785 151.477 227.287 152.59 227.167 153.796C227.047 155.002 227.312 156.217 227.912 157.211C228.513 158.206 229.407 158.91 230.425 159.19Z" fill="#FFB8B8"/>
<path d="M236.476 156.709L235.59 146.945L247.751 139.161L239.823 128.026L241.116 115.518L244.338 113.916L244.438 114.065C245.958 116.332 259.281 136.276 259.281 138.742C259.281 141.274 256.732 148.711 253.245 150.734C249.881 152.685 237.25 156.478 236.714 156.638L236.476 156.709Z" fill="#2F2E41"/>
<path d="M299.577 274H138.485C138.373 274 138.266 273.948 138.186 273.856C138.107 273.764 138.062 273.64 138.062 273.51C138.062 273.379 138.107 273.255 138.186 273.163C138.266 273.071 138.373 273.019 138.485 273.019H299.577C299.689 273.019 299.797 273.071 299.876 273.163C299.956 273.255 300 273.379 300 273.51C300 273.64 299.956 273.764 299.876 273.856C299.797 273.948 299.689 274 299.577 274Z" fill="#CCCCCC"/>
</g>
<defs>
<clipPath id="clip0">
<rect width="300" height="274" fill="white"/>
</clipPath>
</defs>
</svg>
