<svg width="300" height="274" viewBox="0 0 300 274" fill="none" xmlns="http://www.w3.org/2000/svg">
<g clip-path="url(#clip0)">
<path d="M122.634 38.7264H0V108.684H122.634V38.7264Z" fill="#236477"/>
<path d="M131.687 102.438H8.23047V31.6475H131.687V102.438ZM9.05351 101.605H130.864V32.4803H9.05351V101.605Z" fill="#3F3D56"/>
<path d="M290.946 7.07898H168.312V77.0364H290.946V7.07898Z" fill="#F2F2F2"/>
<path d="M300 70.7903H176.543V0H300V70.7903ZM177.367 69.9575H299.177V0.832827H177.367V69.9575Z" fill="#3F3D56"/>
<path d="M210.747 274H53.9564C53.8473 274 53.7426 273.956 53.6654 273.878C53.5883 273.8 53.5449 273.694 53.5449 273.584C53.5449 273.473 53.5883 273.367 53.6654 273.289C53.7426 273.211 53.8473 273.167 53.9564 273.167H210.747C210.856 273.167 210.96 273.211 211.038 273.289C211.115 273.367 211.158 273.473 211.158 273.584C211.158 273.694 211.115 273.8 211.038 273.878C210.96 273.956 210.856 274 210.747 274Z" fill="#CCCCCC"/>
<path d="M152.112 175.615C152.147 174.862 152.345 174.126 152.692 173.459C153.039 172.792 153.526 172.21 154.119 171.754C154.712 171.298 155.396 170.979 156.124 170.82C156.852 170.661 157.606 170.665 158.332 170.832L165.07 161.224L171.838 163.943L162.135 177.376C161.777 178.592 160.99 179.633 159.923 180.301C158.857 180.969 157.586 181.218 156.35 181.001C155.115 180.784 154.001 180.115 153.22 179.123C152.439 178.13 152.044 176.882 152.112 175.615L152.112 175.615Z" fill="#A0616A"/>
<path d="M159.502 167.352L171.481 146.966L166.601 133.797L173.248 115.86L173.493 115.966C173.654 116.036 177.431 117.741 177.99 123.849L185.629 148.141L165.243 174.903L159.502 167.352Z" fill="#3F3D56"/>
<path d="M94.4439 92.4055C95.183 92.4993 95.8927 92.7559 96.5231 93.1572C97.1536 93.5586 97.6894 94.0949 98.0928 94.7284C98.4962 95.362 98.7575 96.0773 98.8581 96.8241C98.9588 97.5709 98.8964 98.3309 98.6754 99.0506L107.621 106.591L104.419 113.209L91.9336 102.382C90.7633 101.926 89.7989 101.051 89.2232 99.924C88.6474 98.7967 88.5003 97.4949 88.8098 96.2653C89.1192 95.0356 89.8637 93.9635 90.9021 93.2521C91.9405 92.5407 93.2007 92.2395 94.4439 92.4055Z" fill="#A0616A"/>
<path d="M102.013 100.501L121.174 114.162L134.527 110.257L151.686 118.349L151.562 118.588C151.481 118.745 149.509 122.424 143.448 122.516L118.922 128.344L94.1299 105.708L102.013 100.501Z" fill="#3F3D56"/>
<path d="M137.074 266.628H130.413L127.244 240.63L137.075 240.63L137.074 266.628Z" fill="#A0616A"/>
<path d="M123.693 264.702H138.501V272.887H117.566V270.901C117.566 269.257 118.212 267.68 119.361 266.518C120.51 265.355 122.068 264.702 123.693 264.702Z" fill="#2F2E41"/>
<path d="M163.697 266.628H157.036L153.867 240.63L163.698 240.63L163.697 266.628Z" fill="#A0616A"/>
<path d="M150.316 264.702H165.124V272.887H144.189V270.901C144.189 269.257 144.835 267.68 145.984 266.518C147.133 265.355 148.691 264.702 150.316 264.702Z" fill="#2F2E41"/>
<path d="M166.066 171.732L165.523 210.217L164.98 260.798L153.026 259.698L147.05 189.875L139.443 259.698H127.103L125.86 189.325L130.206 173.931L166.066 171.732Z" fill="#2F2E41"/>
<path d="M129.015 174.166L127.194 174.086L135.652 126.937L132.189 112.686C132.009 111.944 132.104 111.162 132.456 110.486C132.808 109.811 133.393 109.29 134.099 109.022L140.33 106.658L142.532 100.531L159.901 102.425L160.328 107.213C162.21 107.824 177.709 113.047 176.64 118.998C175.584 124.873 169.352 143.354 169.036 144.29L167.944 170.795L167.81 170.863C167.648 170.944 155.677 176.901 142.671 176.9C138.091 176.9 133.38 176.161 129.015 174.166Z" fill="#3F3D56"/>
<path d="M161.509 90.9153C164.822 84.783 162.594 77.0942 156.534 73.742C150.474 70.3898 142.875 72.6435 139.562 78.7758C136.25 84.9082 138.477 92.5969 144.537 95.9492C150.597 99.3014 158.196 97.0477 161.509 90.9153Z" fill="#A0616A"/>
<path d="M160.665 97.0954C158.282 99.6643 153.855 98.2852 153.545 94.7758C153.521 94.5033 153.522 94.2291 153.55 93.957C153.711 92.4024 154.598 90.9911 154.385 89.3497C154.337 88.9412 154.187 88.5519 153.949 88.2187C152.049 85.6453 147.591 89.3697 145.799 87.0401C144.7 85.6117 145.992 83.3626 145.148 81.7661C144.035 79.6589 140.738 80.6984 138.67 79.5444C136.37 78.2604 136.508 74.6889 138.022 72.5165C139.869 69.8672 143.107 68.4535 146.304 68.2498C149.502 68.046 152.678 68.9207 155.663 70.0979C159.055 71.4355 162.418 73.2841 164.506 76.302C167.044 79.9722 167.288 84.9064 166.019 89.1979C165.247 91.8085 162.611 94.9976 160.665 97.0954Z" fill="#2F2E41"/>
</g>
<defs>
<clipPath id="clip0">
<rect width="300" height="274" fill="white"/>
</clipPath>
</defs>
</svg>
