<svg width="405" height="314" viewBox="0 0 405 314" fill="none" xmlns="http://www.w3.org/2000/svg">
<g clip-path="url(#clip0)">
<path d="M6.22985 289.196C8.87648 298.369 16.6043 304.789 24.6654 310.243C25.7909 311.005 26.9168 311.749 28.0431 312.476C28.0507 312.479 28.0586 312.486 28.0663 312.49C28.1205 312.525 28.1748 312.559 28.2253 312.594C28.4577 312.744 28.6902 312.894 28.9208 313.042L28.7941 313.099C28.7941 313.099 28.6698 313.165 28.8058 313.109C28.8463 313.092 28.8887 313.077 28.9291 313.06C33.6121 311.173 38.3783 309.147 41.9671 305.613C45.69 301.942 47.8656 296.185 45.8497 291.364C45.5847 290.732 45.25 290.132 44.8518 289.574C44.6883 289.341 44.5122 289.117 44.3288 288.897C43.2169 287.542 41.7635 286.506 40.1181 285.897C38.4728 285.289 36.6948 285.129 34.9671 285.434C33.2395 285.74 31.6243 286.499 30.2879 287.635C28.9515 288.771 27.942 290.241 27.3631 291.896C26.7709 286.387 31.3177 281.773 35.6933 278.369C40.0708 274.966 45.045 271.26 45.8913 265.782C46.3639 262.734 45.3029 259.781 43.3703 257.41C43.3105 257.338 43.2507 257.266 43.1891 257.196C40.8365 254.434 37.5276 252.661 33.9234 252.23C27.211 251.533 20.6909 255.082 15.8145 259.744C7.96594 267.246 3.22115 278.768 6.22985 289.196Z" fill="#F1F1F1"/>
<path d="M18.8469 277.199C17.5587 279.201 16.5696 281.381 15.911 283.668C15.354 285.713 15.106 287.829 15.1755 289.946C15.3551 294.304 16.5797 298.555 18.7463 302.341C20.3782 305.214 22.3671 307.869 24.6656 310.243C25.7912 311.005 26.9171 311.749 28.0433 312.476C28.0509 312.479 28.0588 312.486 28.0665 312.49C28.1207 312.524 28.175 312.559 28.2255 312.594C28.4579 312.744 28.6905 312.894 28.921 313.042C28.921 313.042 28.6701 313.165 28.8061 313.109C28.8465 313.092 28.889 313.077 28.9294 313.06C28.5096 309.622 28.9208 306.134 30.1284 302.888C31.336 299.642 33.3049 296.732 35.8701 294.403C38.4414 292.109 41.519 290.454 44.852 289.574C44.6885 289.341 44.5124 289.117 44.329 288.897C43.0418 289.258 41.7889 289.731 40.5852 290.313C36.2821 292.377 32.7587 295.77 30.5365 299.991C28.5424 303.823 27.6841 308.144 28.0625 312.447C27.8701 312.273 27.6775 312.095 27.4906 311.918C23.9321 308.604 20.7713 304.8 18.6323 300.409C16.7765 296.691 15.8644 292.574 15.9764 288.421C16.1509 283.892 17.9571 279.698 20.5722 276.046C23.4384 272.15 26.8243 268.664 30.6359 265.685C34.4772 262.612 38.6805 260.019 43.1522 257.966C43.2531 257.919 43.332 257.835 43.3726 257.731C43.4132 257.628 43.4125 257.512 43.3705 257.409C43.3407 257.317 43.2756 257.24 43.1893 257.195C43.1449 257.176 43.0968 257.167 43.0485 257.169C43.0002 257.172 42.953 257.184 42.9104 257.207C42.3583 257.461 41.81 257.719 41.2661 257.987C36.7362 260.224 32.5019 263.014 28.6606 266.294C24.9502 269.454 21.457 273.064 18.8469 277.199Z" fill="white"/>
<path d="M124.819 306.143H131.852L135.197 279.045L124.818 279.045L124.819 306.143Z" fill="#FFB7B7"/>
<path d="M123.025 303.85L136.875 303.849H136.876C139.216 303.849 141.461 304.778 143.116 306.432C144.772 308.085 145.702 310.328 145.702 312.666V312.953L123.026 312.953L123.025 303.85Z" fill="#2F2E41"/>
<path d="M86.7423 306.143H93.7751L97.1206 279.045L86.7412 279.045L86.7423 306.143Z" fill="#FFB7B7"/>
<path d="M84.9487 303.85L98.7984 303.849H98.799C101.14 303.849 103.385 304.778 105.04 306.432C106.695 308.085 107.625 310.328 107.625 312.666V312.953L84.9492 312.953L84.9487 303.85Z" fill="#2F2E41"/>
<path d="M83.8774 183.328V254.876L85.6905 301.065H100.649L105.636 214.121L115.608 249.895L121.954 300.159L140.086 299.254L127.847 183.328H83.8774Z" fill="#2F2E41"/>
<path d="M101.266 119.026C107.275 119.026 112.145 114.16 112.145 108.158C112.145 102.156 107.275 97.29 101.266 97.29C95.2579 97.29 90.3872 102.156 90.3872 108.158C90.3872 114.16 95.2579 119.026 101.266 119.026Z" fill="#FFB8B8"/>
<path d="M96.7458 121.858L93.8493 124.913L91.1294 186.046L123.314 185.14L115.608 131.706L108.808 125.197L105.358 121.858H96.7458Z" fill="#236477"/>
<path d="M91.5828 128.536L94.0258 124.575L94.7559 133.064C94.7559 133.064 100.649 152.083 100.195 168.838C99.7421 185.593 102.462 224.989 98.8355 225.442C95.2092 225.895 79.7972 226.8 79.7972 223.631C79.7972 220.461 78.8906 136.234 78.8906 136.234L91.5828 128.536Z" fill="#2F2E41"/>
<path d="M108.078 124.575L114.248 129.441L127.847 134.422C127.847 134.422 127.847 192.385 130.566 205.97C133.286 219.555 138.272 220.914 131.926 221.366C125.58 221.819 126.033 219.555 126.033 219.555C126.033 219.555 107.448 161.592 108.355 147.102C109.262 132.611 107.172 124.575 108.078 124.575Z" fill="#2F2E41"/>
<path d="M90.9741 111.558C90.9741 111.558 91.8985 109.937 91.6836 104.519C91.4687 99.1022 99.7262 102.166 106.626 101.649C113.526 101.133 112.066 110.694 112.066 110.694C112.066 110.694 112.564 110.125 113.629 105.511C114.695 100.896 112.275 96.2979 112.275 96.2979C111.562 91.449 107.722 93.0031 107.722 93.0031C109.571 93.7225 109.216 95.2606 109.216 95.2606C107.65 92.5182 103.809 94.0723 103.809 94.0723C98.6867 90.861 93.495 95.0899 93.495 95.0899C87.3065 96.493 90.9358 101.409 90.9358 101.409C84.7123 104.551 90.9741 111.558 90.9741 111.558Z" fill="#2F2E41"/>
<path d="M79.8126 217.083C80.2737 216.596 80.6223 216.014 80.834 215.378C81.0456 214.742 81.1151 214.068 81.0375 213.402C80.9599 212.736 80.7372 212.095 80.3849 211.525C80.0327 210.955 79.5596 210.468 78.9988 210.1L80.9585 199.809L74.9884 197.094L72.4252 211.666C71.8689 212.648 71.6924 213.8 71.9293 214.903C72.1662 216.007 72.8 216.985 73.7105 217.652C74.6211 218.32 75.7453 218.631 76.8699 218.526C77.9945 218.421 79.0416 217.908 79.8126 217.083V217.083Z" fill="#FFB7B7"/>
<path d="M81.1569 136.234L79.9533 135.589C79.9533 135.589 73.4509 138.045 73.9042 139.856C74.3575 141.668 70.2779 205.064 71.6378 207.329C72.9976 209.593 83.8767 207.781 83.8767 207.781L81.1569 136.234Z" fill="#2F2E41"/>
<path d="M132.904 212.814C132.38 212.396 131.954 211.868 131.657 211.267C131.359 210.667 131.197 210.008 131.181 209.338C131.166 208.668 131.298 208.003 131.568 207.389C131.838 206.776 132.239 206.229 132.743 205.787L129.377 195.865L134.914 192.351L139.47 206.429C140.158 207.325 140.492 208.441 140.41 209.566C140.328 210.692 139.836 211.748 139.027 212.535C138.217 213.322 137.147 213.785 136.019 213.837C134.89 213.888 133.782 213.525 132.904 212.815V212.814Z" fill="#FFB7B7"/>
<path d="M127.591 204.164C127.591 204.164 138.616 204.455 139.649 202.024C140.683 199.594 127.862 137.371 128.06 135.514C128.258 133.658 121.478 132.124 121.478 132.124L120.375 132.929L127.591 204.164Z" fill="#2F2E41"/>
<path d="M200.117 314H0.523866C0.384928 314 0.25168 313.945 0.153436 313.847C0.0551924 313.749 0 313.615 0 313.477C0 313.338 0.0551924 313.205 0.153436 313.107C0.25168 313.009 0.384928 312.953 0.523866 312.953H200.117C200.256 312.953 200.389 313.009 200.487 313.107C200.585 313.205 200.64 313.338 200.64 313.477C200.64 313.615 200.585 313.749 200.487 313.847C200.389 313.945 200.256 314 200.117 314Z" fill="#CBCBCB"/>
<path d="M405 161.187H220.778V46.6129H405V161.187ZM225.065 156.905H400.713V50.8949H225.065V156.905Z" fill="#E5E5E5"/>
<path d="M402.857 48.754H222.921V159.046H402.857V48.754Z" fill="white"/>
<path d="M402.857 76.7068V69.9349H377.896V48.7539H371.117V69.9349H326.679V48.7539H319.9V69.9349H251.359V48.7539H244.58V69.9349H222.922V76.7068H244.58V103.042H222.922V109.814H244.58V138.03H222.922V144.802H281.11V159.046H287.889V144.802H319.9V159.046H326.679V144.802H402.857V138.03H326.679V109.814H402.857V103.042H377.896V76.7067L402.857 76.7068ZM319.9 76.7068V84.9835H251.359V76.7068H319.9ZM251.359 91.7554H319.9V103.042H251.359V91.7554ZM251.359 138.03V109.814H281.11V138.03L251.359 138.03ZM319.9 138.03H287.889V109.814H319.9V138.03ZM371.117 103.042H326.679V76.7068H371.117V103.042Z" fill="#E6E6E6"/>
<path d="M355.991 32.4715C355.991 50.405 323.487 90.3554 323.487 90.3554C323.487 90.3554 290.982 50.405 290.982 32.4715C290.982 23.8595 294.407 15.6003 300.503 9.51067C306.599 3.42109 314.866 0 323.487 0C332.108 0 340.375 3.42109 346.471 9.51067C352.567 15.6003 355.991 23.8595 355.991 32.4715Z" fill="#236477"/>
<path d="M338.346 31.0597C338.346 33.9956 337.475 36.8655 335.842 39.3066C334.209 41.7477 331.889 43.6503 329.173 44.7739C326.458 45.8974 323.471 46.1913 320.588 45.6186C317.706 45.0458 315.058 43.632 312.98 41.5561C310.902 39.4801 309.487 36.8351 308.913 33.9556C308.34 31.0762 308.634 28.0915 309.759 25.3791C310.884 22.6667 312.788 20.3484 315.232 18.7173C317.675 17.0862 320.548 16.2156 323.487 16.2156C325.439 16.2147 327.371 16.598 329.175 17.3437C330.978 18.0894 332.616 19.1827 333.996 20.5613C335.376 21.9399 336.471 23.5767 337.217 25.378C337.963 27.1794 338.347 29.1101 338.346 31.0597Z" fill="white"/>
<path d="M323.487 113.791C328.326 113.791 332.249 109.872 332.249 105.038C332.249 100.204 328.326 96.2849 323.487 96.2849C318.648 96.2849 314.725 100.204 314.725 105.038C314.725 109.872 318.648 113.791 323.487 113.791Z" fill="#236477"/>
</g>
<defs>
<clipPath id="clip0">
<rect width="405" height="314" fill="white"/>
</clipPath>
</defs>
</svg>
