<svg width="310" height="274" viewBox="0 0 310 274" fill="none" xmlns="http://www.w3.org/2000/svg">
<g clip-path="url(#clip0)">
<path d="M238.599 206.961C251.35 162.204 247.493 112.229 231.047 73.847L58.896 107.312L223.872 59.0415C154.341 -62.6864 19.0109 18.0542 32.0561 171.744L238.599 206.961Z" fill="#E6E6E6"/>
<path d="M246.191 157.487H26.8682V253.369H246.191V157.487Z" fill="#236477"/>
<path d="M88.0353 145.794C90.0031 147.939 90.7227 148.632 91.1417 148.544C111.445 156.844 93.6462 166.572 83.7812 150.06L88.0353 145.794Z" fill="#FFB8B8"/>
<path d="M21.0381 233.491V252.979L31.0324 252.2L28.2564 231.932L21.0381 233.491Z" fill="#FFB8B8"/>
<path d="M76.563 233.491V252.979L66.5684 252.2L69.3447 231.932L76.563 233.491Z" fill="#FFB8B8"/>
<path d="M46.0245 132.931L61.0162 132.152C95.6001 183.053 82.5212 171.444 81.5603 241.286L63.2372 233.491L67.1239 185.16C67.1259 185.158 68.1492 184.2 67.2986 184.178C61.9789 186.745 58.0975 154.967 46.5797 158.656C33.4732 157.776 31.3394 185.072 26.0356 185.16L29.9223 233.491L11.5992 241.286C9.54762 164.536 -0.507027 181.874 32.1433 132.152L46.0245 132.931Z" fill="#2F2E41"/>
<path d="M23.8145 246.743C23.8145 246.743 21.5935 240.507 18.8173 243.625C16.041 246.743 9.37807 256.097 9.37807 256.097C9.37807 256.097 -6.72411 266.231 3.27035 272.467C13.2648 278.704 21.5935 263.893 21.5935 263.893C31.1131 261.106 36.604 259.321 31.5556 244.743C28.6895 246.484 24.6334 248.5 23.8145 246.743Z" fill="#2F2E41"/>
<path d="M73.7868 246.743C73.7868 246.743 76.0078 240.507 78.784 243.625C81.5603 246.743 88.2232 256.097 88.2232 256.097C88.2232 256.097 104.325 266.231 94.3309 272.467C84.3365 278.704 76.0078 263.893 76.0078 263.893C66.4882 261.106 60.9973 259.321 66.0457 244.743C68.9118 246.484 72.9679 248.5 73.7868 246.743Z" fill="#2F2E41"/>
<path d="M61.0162 44.8445C60.1904 64.2502 41.3259 62.5418 41.0273 44.8444C41.8531 25.4389 60.7176 27.1473 61.0162 44.8445Z" fill="#FFB8B8"/>
<path d="M46.5796 54.9785C51.437 75.5893 39.9689 64.3681 56.0188 80.703L62.1265 63.5533C62.1265 63.5533 57.6845 61.2147 58.2398 52.6399L46.5796 54.9785Z" fill="#FFB8B8"/>
<path d="M76.5627 66.6714L60.011 61.3674C60.4765 75.3789 49.8259 72.5589 47.9674 65.5108L32.1429 78.3644C38.7849 113.095 37.1016 114.528 28.2562 136.829C24.8804 141.157 29.9289 143.637 34.324 141.269C37.6762 138.365 39.3786 135.783 42.9705 136.44C59.9433 141.402 74.0729 142.573 76.309 140.634C77.1092 139.026 76.2858 66.9505 76.5627 66.6714Z" fill="#575A89"/>
<path d="M72.1211 68.2304C72.6763 68.2304 75.5365 66.3424 75.5365 66.3424C83.8578 66.1455 89.442 144.729 89.889 146.963L84.3365 152.42L75.4526 120.459L72.1211 68.2304Z" fill="#575A89"/>
<path d="M33.2539 159.436C33.5378 162.377 34.0209 195.416 42.4509 179.983C43.5569 168.723 39.7967 165.362 38.8064 157.876L33.2539 159.436Z" fill="#FFB8B8"/>
<path d="M35.4748 78.3644L33.7735 77.0403C29.2124 76.8299 30.6499 93.7801 28.7202 106.193C27.1437 120.654 27.5926 136.6 29.4421 157.919C29.6039 165.742 39.5843 160.813 41.0272 160.215C41.0272 160.215 37.6957 128.254 39.3615 122.798C41.0272 117.341 35.4748 78.3644 35.4748 78.3644Z" fill="#575A89"/>
<path d="M60.5789 31.2422C59.037 27.7268 56.6235 25.1364 53.8028 23.9695L51.731 26.2963L52.5365 23.5823C51.8592 23.4373 51.1736 23.3816 50.4889 23.4162L48.6248 26.7809L49.3963 23.5314C41.3977 24.7372 36.6654 37.6282 40.8179 46.6503C41.4584 43.8867 42.2359 41.2935 42.8764 38.5298C43.3798 38.6262 43.8901 38.6297 44.3941 38.5402L45.1735 35.9873L45.3912 38.4322C47.8067 38.1368 51.3894 37.4881 53.6794 36.8938L53.4567 35.0182L54.7889 36.5768C55.4906 36.3501 55.9071 36.1445 55.8727 35.9873C57.5758 39.8419 59.2633 42.304 60.9663 46.1586C61.6128 40.7215 62.7541 36.202 60.5789 31.2422Z" fill="#2F2E41"/>
<path d="M233.064 169.053H184.627V201.311H233.064V169.053Z" fill="white"/>
<path d="M223.905 175.81H193.787V179.677H223.905V175.81Z" fill="#E6E6E6"/>
<path d="M223.905 183.248H193.787V187.116H223.905V183.248Z" fill="#E6E6E6"/>
<path d="M223.905 190.686H193.787V194.554H223.905V190.686Z" fill="#E6E6E6"/>
<path d="M142.446 176.715L140.87 172.884L139.295 169.053L137.719 172.884L136.144 176.715H137.836V187.81H140.753V176.715H142.446Z" fill="white"/>
<path d="M249.205 255.656C256.37 255.656 262.178 247.501 262.178 237.442C262.178 227.383 256.37 219.229 249.205 219.229C242.04 219.229 236.231 227.383 236.231 237.442C236.231 247.501 242.04 255.656 249.205 255.656Z" fill="#3F3D56"/>
<path d="M251.564 245.514C254.739 245.514 257.313 241.9 257.313 237.442C257.313 232.984 254.739 229.37 251.564 229.37C248.388 229.37 245.814 232.984 245.814 237.442C245.814 241.9 248.388 245.514 251.564 245.514Z" fill="#E6E6E6"/>
<path d="M241.023 250.171L269.328 266.729L268.444 270.662L252.153 268.074L224.585 250.896L239.917 253.379L241.023 250.171Z" fill="#3F3D56"/>
<path d="M266.043 265.983L301.247 103.856L309.82 82.4815L309.85 82.2752C309.878 82.0867 310.507 77.619 308.959 74.3837C308.569 73.5794 308.065 72.8967 307.478 72.378C306.892 71.8593 306.235 71.5157 305.55 71.3688C300.819 70.1233 290.234 69.5097 289.785 69.4841L289.701 69.4792L289.617 69.4953C289.328 69.5507 282.563 70.939 281.034 79.2323L273.674 98.0375L273.645 98.1713L240.327 251.953L242.161 252.736L275.45 99.0881L282.834 80.2195L282.864 80.0461C283.945 73.8053 289.115 72.3452 289.803 72.1782C290.884 72.243 300.833 72.8645 305.197 74.0134C305.63 74.0963 306.047 74.3046 306.42 74.6251C306.793 74.9457 307.114 75.3714 307.364 75.8754C308.318 77.859 308.079 80.7796 307.995 81.5474L299.475 102.791L299.444 102.931L264.21 265.198L266.043 265.983Z" fill="#3F3D56"/>
<path d="M271.191 113.586L270.85 116.233L296.275 122.68L296.616 120.032L271.191 113.586Z" fill="#3F3D56"/>
<path d="M266.442 135.606L266.059 138.242L291.303 145.475L291.686 142.839L266.442 135.606Z" fill="#3F3D56"/>
<path d="M257.987 174.988L257.46 177.575L282.106 187.475L282.633 184.889L257.987 174.988Z" fill="#3F3D56"/>
<path d="M274.655 251.321L275.353 248.815L251.432 235.664L250.257 217.807L272.584 229.515L279.818 244.209L281.395 242.68L273.819 227.29L248.068 213.787L249.632 237.565L274.655 251.321Z" fill="#3F3D56"/>
<path d="M282.965 273.042C290.13 273.042 295.938 264.887 295.938 254.828C295.938 244.769 290.13 236.614 282.965 236.614C275.8 236.614 269.992 244.769 269.992 254.828C269.992 264.887 275.8 273.042 282.965 273.042Z" fill="#3F3D56"/>
<path d="M286.355 263.728C289.531 263.728 292.105 260.114 292.105 255.656C292.105 251.198 289.531 247.584 286.355 247.584C283.18 247.584 280.606 251.198 280.606 255.656C280.606 260.114 283.18 263.728 286.355 263.728Z" fill="#E6E6E6"/>
</g>
<defs>
<clipPath id="clip0">
<rect width="310" height="274" fill="white"/>
</clipPath>
</defs>
</svg>
