<svg width="349" height="317" viewBox="0 0 349 317" fill="none" xmlns="http://www.w3.org/2000/svg">
<g clip-path="url(#clip0)">
<path d="M174.5 113.149H174.5C180.858 113.149 187.154 114.404 193.028 116.84C198.903 119.277 204.24 122.849 208.736 127.351C213.232 131.854 216.798 137.199 219.232 143.082C221.665 148.965 222.917 155.27 222.917 161.638V277.813H126.083V161.638C126.083 155.27 127.335 148.965 129.768 143.082C132.201 137.199 135.768 131.854 140.264 127.351C144.76 122.849 150.097 119.277 155.971 116.84C161.846 114.404 168.142 113.149 174.5 113.149Z" fill="#E6E6E6"/>
<path d="M157.702 171.446H149.007V200.341H157.702V171.446Z" fill="white"/>
<path d="M188.927 202.716H160.074V228.841H188.927V202.716Z" fill="white"/>
<path d="M188.927 171.446H160.074V200.341H188.927V171.446Z" fill="white"/>
<path d="M191.298 169.071H199.993V168.477C199.996 164.841 199.222 161.247 197.722 157.936C196.222 154.624 194.032 151.673 191.298 149.281V169.071Z" fill="white"/>
<path d="M160.074 169.071H188.927V147.43C184.684 144.503 179.652 142.939 174.5 142.946C169.348 142.939 164.316 144.503 160.074 147.43V169.071Z" fill="white"/>
<path d="M157.702 202.716H149.007V222.507C149.007 224.187 149.673 225.798 150.859 226.986C152.045 228.173 153.654 228.841 155.331 228.841H157.702V202.716Z" fill="white"/>
<path d="M191.298 202.716V228.841H193.669C195.347 228.841 196.955 228.173 198.141 226.986C199.327 225.798 199.993 224.187 199.993 222.507V202.716H191.298Z" fill="white"/>
<path d="M157.702 169.071V149.281C154.968 151.673 152.778 154.625 151.278 157.936C149.778 161.247 149.004 164.841 149.007 168.477V169.071H157.702Z" fill="white"/>
<path d="M199.993 171.446H191.298V200.341H199.993V171.446Z" fill="white"/>
<path d="M216 209.841C218.838 209.841 221.139 207.537 221.139 204.695C221.139 201.853 218.838 199.549 216 199.549C213.163 199.549 210.862 201.853 210.862 204.695C210.862 207.537 213.163 209.841 216 209.841Z" fill="#3F3D56"/>
<path d="M54.0128 155.309H47.188V177.989H54.0128V155.309Z" fill="#F2F2F2"/>
<path d="M78.5199 155.309H55.874V177.989H78.5199V155.309Z" fill="#F2F2F2"/>
<path d="M87.2061 155.309H80.3813V177.989H87.2061V155.309Z" fill="#F2F2F2"/>
<path d="M80.3813 153.445H87.2061V152.979C87.2086 150.126 86.6008 147.304 85.4236 144.706C84.2464 142.107 82.5271 139.79 80.3813 137.913V153.445Z" fill="#F2F2F2"/>
<path d="M78.5199 179.853H55.874V200.357H78.5199V179.853Z" fill="#F2F2F2"/>
<path d="M54.0128 179.853H47.188V195.386C47.188 196.705 47.7109 197.969 48.6418 198.901C49.5726 199.833 50.8351 200.357 52.1515 200.357H54.0128L54.0128 179.853Z" fill="#F2F2F2"/>
<path d="M80.3813 179.853V200.357H82.2427C82.8945 200.357 83.5399 200.229 84.1421 199.979C84.7443 199.729 85.2915 199.363 85.7524 198.901C86.2133 198.44 86.5789 197.892 86.8283 197.289C87.0778 196.686 87.2061 196.039 87.2061 195.386V179.853H80.3813Z" fill="#F2F2F2"/>
<path d="M54.0128 153.445V137.913C51.8671 139.791 50.1478 142.107 48.9706 144.706C47.7934 147.304 47.1856 150.126 47.188 152.979V153.445H54.0128Z" fill="#F2F2F2"/>
<path d="M55.874 153.445H78.5199V136.46C75.1899 134.162 71.2405 132.935 67.197 132.941C63.1534 132.935 59.204 134.163 55.874 136.46V153.445Z" fill="#F2F2F2"/>
<path d="M96.1194 202.835H38.4189C38.0488 202.835 37.694 202.687 37.4323 202.425C37.1706 202.163 37.0234 201.808 37.0229 201.437V197.709C37.0234 197.338 37.1706 196.983 37.4323 196.721C37.694 196.459 38.0488 196.311 38.4189 196.311H96.1194C96.4895 196.311 96.8443 196.459 97.106 196.721C97.3677 196.983 97.5149 197.338 97.5153 197.709V201.437C97.5149 201.808 97.3677 202.163 97.106 202.425C96.8443 202.687 96.4895 202.835 96.1194 202.835Z" fill="#E6E6E6"/>
<path d="M268.63 155.309H261.805V177.989H268.63V155.309Z" fill="#F2F2F2"/>
<path d="M293.137 155.309H270.491V177.989H293.137V155.309Z" fill="#F2F2F2"/>
<path d="M301.823 155.309H294.999V177.989H301.823V155.309Z" fill="#F2F2F2"/>
<path d="M294.999 153.445H301.823V152.979C301.826 150.126 301.218 147.304 300.041 144.706C298.864 142.107 297.144 139.79 294.999 137.913V153.445Z" fill="#F2F2F2"/>
<path d="M293.137 179.853H270.491V200.357H293.137V179.853Z" fill="#F2F2F2"/>
<path d="M268.63 179.853H261.805V195.386C261.805 196.705 262.328 197.969 263.259 198.901C264.19 199.833 265.452 200.357 266.769 200.357H268.63L268.63 179.853Z" fill="#F2F2F2"/>
<path d="M294.999 179.853V200.357H296.86C297.512 200.357 298.157 200.229 298.759 199.979C299.361 199.729 299.909 199.363 300.37 198.901C300.83 198.44 301.196 197.892 301.446 197.289C301.695 196.686 301.823 196.039 301.823 195.386V179.853H294.999Z" fill="#F2F2F2"/>
<path d="M268.63 153.445V137.913C266.484 139.791 264.765 142.107 263.588 144.706C262.411 147.304 261.803 150.126 261.805 152.979V153.445H268.63Z" fill="#F2F2F2"/>
<path d="M270.491 153.445H293.137V136.46C289.807 134.162 285.858 132.935 281.814 132.941C277.771 132.935 273.821 134.163 270.491 136.46V153.445Z" fill="#F2F2F2"/>
<path d="M310.737 202.835H253.036C252.666 202.835 252.311 202.687 252.049 202.425C251.788 202.163 251.641 201.808 251.64 201.437V197.709C251.641 197.338 251.788 196.983 252.049 196.721C252.311 196.459 252.666 196.311 253.036 196.311H310.737C311.107 196.311 311.462 196.459 311.723 196.721C311.985 196.983 312.132 197.338 312.133 197.709V201.437C312.132 201.808 311.985 202.163 311.723 202.425C311.462 202.687 311.107 202.835 310.737 202.835Z" fill="#E6E6E6"/>
<path d="M327.855 278.209H21.1456C17.6875 278.205 14.3723 276.828 11.9271 274.379C9.48187 271.93 8.10645 268.61 8.10254 265.147V66.046C8.10645 62.5829 9.48187 59.2627 11.9271 56.8139C14.3723 54.3651 17.6875 52.9877 21.1456 52.9838H327.855C331.313 52.9877 334.628 54.3651 337.073 56.8139C339.518 59.2627 340.894 62.5829 340.898 66.046V265.147C340.894 268.61 339.518 271.93 337.073 274.379C334.628 276.828 331.313 278.205 327.855 278.209ZM21.1456 53.7754C17.8971 53.7791 14.7828 55.0731 12.4858 57.3735C10.1888 59.6739 8.89671 62.7928 8.89303 66.046V265.147C8.89671 268.4 10.1888 271.519 12.4858 273.819C14.7828 276.12 17.8971 277.414 21.1456 277.417H327.855C331.103 277.414 334.217 276.12 336.514 273.819C338.811 271.519 340.103 268.4 340.107 265.147V66.046C340.103 62.7928 338.811 59.6739 336.514 57.3735C334.217 55.0731 331.103 53.7791 327.855 53.7754H21.1456Z" fill="#CCCCCC"/>
<path d="M13.0621 79.0171C9.77872 79.0146 6.61649 77.7747 4.20415 75.544C1.79182 73.3132 0.306061 70.255 0.0422779 66.9774C-0.221505 63.6998 0.756004 60.4427 2.78046 57.8539C4.80492 55.265 7.72805 53.534 10.9687 53.0048L171.261 0.260587C173.344 -0.0842487 175.469 -0.0868602 177.553 0.252856L338.059 53.0135C341.477 53.5783 344.531 55.4787 346.55 58.2973C348.57 61.1159 349.389 64.6221 348.829 68.0455C348.268 71.4689 346.374 74.5294 343.561 76.5546C340.749 78.5798 337.249 79.404 333.83 78.8461C332.101 78.5987 175.921 56.2656 174.497 56.2068C173.078 56.2656 16.7465 78.6205 15.1676 78.8464C14.4715 78.96 13.7674 79.0171 13.0621 79.0171Z" fill="#CCCCCC"/>
<path d="M243.247 246.76C243.577 246.331 243.81 245.833 243.928 245.304C244.046 244.774 244.046 244.225 243.93 243.695C243.813 243.165 243.581 242.668 243.252 242.237C242.922 241.806 242.502 241.453 242.021 241.203L242.754 232.753L237.735 231.055L236.868 243.002C236.501 243.839 236.454 244.781 236.734 245.65C237.015 246.519 237.604 247.255 238.39 247.719C239.177 248.182 240.105 248.34 241 248.164C241.895 247.987 242.695 247.488 243.247 246.76Z" fill="#FFB8B8"/>
<path d="M268.293 312.457L263.774 312.457L261.625 295.003L268.294 295.003L268.293 312.457Z" fill="#FFB8B8"/>
<path d="M260.546 311.164H269.261V316.659H255.06C255.06 315.937 255.201 315.223 255.477 314.556C255.753 313.889 256.157 313.284 256.667 312.773C257.176 312.263 257.781 311.858 258.447 311.582C259.112 311.306 259.826 311.164 260.546 311.164Z" fill="#2F2E41"/>
<path d="M258.036 300.876L253.648 301.955L247.401 285.52L253.877 283.926L258.036 300.876Z" fill="#FFB8B8"/>
<path d="M250.206 301.471L258.668 299.389L259.977 304.725L246.187 308.119C246.015 307.418 245.982 306.69 246.091 305.977C246.2 305.263 246.448 304.579 246.822 303.961C247.195 303.344 247.686 302.806 248.266 302.379C248.847 301.952 249.506 301.643 250.206 301.471Z" fill="#2F2E41"/>
<path d="M263.004 306.893C262.592 306.894 262.194 306.741 261.887 306.465C261.581 306.188 261.388 305.808 261.346 305.397L256.146 256.887L251.622 271.721L258.03 294.89C258.14 295.287 258.1 295.711 257.917 296.081C257.734 296.45 257.422 296.739 257.04 296.892L251.945 298.932C251.735 299.016 251.511 299.057 251.285 299.052C251.059 299.046 250.837 298.995 250.631 298.901C250.425 298.808 250.241 298.673 250.089 298.506C249.936 298.339 249.82 298.142 249.745 297.929L241.892 275.363C241.032 272.899 240.651 270.293 240.771 267.686L241.867 243.333L270.737 244.558L270.286 304.808C270.281 305.228 270.119 305.63 269.833 305.936C269.547 306.243 269.157 306.431 268.74 306.465L263.134 306.888C263.09 306.891 263.047 306.893 263.004 306.893Z" fill="#2F2E41"/>
<path d="M258.223 189.44C263.584 189.44 267.93 185.087 267.93 179.718C267.93 174.348 263.584 169.996 258.223 169.996C252.861 169.996 248.515 174.348 248.515 179.718C248.515 185.087 252.861 189.44 258.223 189.44Z" fill="#FFB8B8"/>
<path d="M265.362 246.142C262.805 246.142 259.629 245.932 256.343 245.716C251.853 245.42 247.21 245.114 243.745 245.315C243.277 245.362 242.805 245.287 242.374 245.099C241.943 244.911 241.567 244.616 241.282 244.241C237.709 239.66 243.22 221.794 243.456 221.036L247.941 201.06L248.134 201.103L247.941 201.06C248.927 196.666 252.079 193.425 256.167 192.602C259.993 191.832 263.694 193.366 266.067 196.708C266.193 196.885 266.319 197.067 266.445 197.254C274.172 208.716 269.802 237.191 269.509 239.029C269.917 239.519 272.124 242.288 271.517 244.211C271.271 244.993 270.6 245.527 269.525 245.796C268.154 246.067 266.758 246.184 265.362 246.142Z" fill="#CCCCCC"/>
<path d="M243.901 246.151C243.022 246.151 241.836 245.826 240.237 245.159C239.549 244.873 237.458 244.001 239.997 221.777C241.244 210.86 243.031 200.02 243.049 199.911L243.066 199.807L243.162 199.763C243.208 199.742 247.772 197.647 248.565 194.956C248.593 194.862 248.624 194.772 248.658 194.685C248.876 194.086 249.317 193.595 249.888 193.314C250.459 193.034 251.116 192.984 251.722 193.177C252.363 193.33 252.921 193.722 253.284 194.273C253.647 194.823 253.787 195.491 253.676 196.141C253.399 197.897 252.868 199.603 252.099 201.204C249.951 205.642 248.497 217.405 248.482 217.523C248.4 218.528 246.451 242.33 246.076 244.136C245.945 244.767 245.703 245.539 244.995 245.914C244.655 246.082 244.28 246.163 243.901 246.151Z" fill="#2F2E41"/>
<path d="M254.507 245.239C254.329 245.239 254.157 245.179 254.017 245.07C251.161 242.897 255.783 216.55 258.525 207.46C259.073 205.64 259.562 204.081 259.977 202.827C260.734 200.576 261.263 198.254 261.554 195.897C261.705 194.621 262.033 193.891 262.557 193.668C262.921 193.512 263.349 193.618 263.83 193.982C266.361 193.857 268.822 194.893 271.103 196.033L273.155 197.058L275.457 237.887C275.392 240.493 270.264 242.332 268.025 242.45C264.433 242.638 257.983 243.224 255.14 245.026C254.954 245.156 254.734 245.23 254.507 245.239Z" fill="#2F2E41"/>
<path d="M241.678 237.578C241.644 237.578 241.61 237.577 241.576 237.575L236.925 237.288C236.693 237.274 236.467 237.212 236.261 237.105C236.055 236.999 235.873 236.85 235.727 236.67C235.581 236.489 235.475 236.28 235.414 236.056C235.353 235.831 235.34 235.597 235.374 235.367L237.479 221.403L241.441 201.811C241.539 201.328 241.736 200.871 242.021 200.47C242.307 200.069 242.673 199.732 243.096 199.482C243.52 199.232 243.991 199.073 244.479 199.017C244.968 198.96 245.463 199.007 245.932 199.155C246.734 199.411 247.418 199.946 247.86 200.663C248.303 201.38 248.475 202.232 248.346 203.065L245.198 222.697L243.334 236.134C243.277 236.534 243.078 236.9 242.774 237.165C242.47 237.43 242.081 237.577 241.678 237.578Z" fill="#2F2E41"/>
<path d="M259.996 189.2C261.457 189.232 262.908 188.954 264.254 188.384C265.6 187.813 266.811 186.965 267.806 185.893C268.801 184.821 269.558 183.55 270.028 182.164C270.497 180.779 270.669 179.309 270.531 177.852C270.393 176.395 269.949 174.984 269.228 173.711C268.507 172.438 267.524 171.332 266.346 170.467C265.168 169.601 263.82 168.995 262.391 168.688C260.962 168.381 259.485 168.381 258.055 168.687C255.921 167.388 253.439 166.515 250.951 166.737C248.463 166.959 246.003 168.438 245.073 170.76C244.143 173.081 245.142 176.14 247.455 177.084C248.938 177.689 250.613 177.395 252.195 177.151C253.778 176.908 255.504 176.748 256.881 177.566C258.259 178.384 258.878 180.577 257.644 181.599C256.99 182.162 256.523 182.912 256.306 183.748C256.088 184.584 256.13 185.466 256.425 186.278C257.045 187.883 258.737 189.173 259.996 189.2Z" fill="#2F2E41"/>
<path d="M238.478 190.068C235.948 190.069 233.522 191.077 231.734 192.869C229.946 194.661 228.941 197.091 228.941 199.625C228.941 202.159 229.946 204.589 231.734 206.381C233.522 208.173 235.948 209.181 238.478 209.182H238.478C241.008 209.181 243.434 208.173 245.222 206.381C247.011 204.589 248.016 202.159 248.016 199.625C248.016 197.091 247.011 194.661 245.222 192.869C243.434 191.077 241.008 190.069 238.478 190.068Z" fill="#236477"/>
<path d="M237.573 203.594C237.321 203.595 237.077 203.513 236.876 203.362L236.863 203.353L234.239 201.342C234.117 201.249 234.015 201.133 233.939 201C233.862 200.867 233.812 200.72 233.792 200.568C233.772 200.416 233.782 200.262 233.822 200.114C233.861 199.965 233.93 199.827 234.023 199.705C234.116 199.583 234.232 199.481 234.365 199.404C234.498 199.327 234.644 199.278 234.796 199.257C234.948 199.237 235.102 199.247 235.25 199.287C235.398 199.327 235.537 199.395 235.658 199.488L237.358 200.794L241.375 195.546C241.468 195.424 241.584 195.322 241.717 195.245C241.849 195.168 241.996 195.119 242.147 195.099C242.299 195.078 242.454 195.089 242.601 195.128C242.749 195.168 242.888 195.236 243.009 195.329L243.01 195.33L242.985 195.364L243.01 195.33C243.256 195.518 243.416 195.797 243.456 196.104C243.497 196.411 243.414 196.721 243.226 196.967L238.501 203.137C238.392 203.28 238.251 203.395 238.091 203.474C237.93 203.553 237.753 203.593 237.574 203.593L237.573 203.594Z" fill="white"/>
<path d="M258.582 216.57H225.087C224.642 216.57 224.201 216.658 223.789 216.828C223.377 216.999 223.003 217.249 222.688 217.565C222.373 217.88 222.124 218.255 221.953 218.667C221.783 219.079 221.695 219.521 221.695 219.967V253.511C221.695 253.957 221.783 254.399 221.953 254.811C222.124 255.223 222.373 255.598 222.688 255.913C223.003 256.229 223.377 256.479 223.789 256.65C224.201 256.82 224.642 256.908 225.087 256.908H258.582C259.027 256.908 259.468 256.82 259.88 256.65C260.292 256.479 260.666 256.229 260.981 255.913C261.296 255.598 261.545 255.223 261.716 254.811C261.886 254.399 261.974 253.957 261.974 253.511V219.967C261.974 219.521 261.886 219.079 261.716 218.667C261.545 218.255 261.296 217.88 260.981 217.565C260.666 217.249 260.292 216.999 259.88 216.828C259.468 216.658 259.027 216.57 258.582 216.57Z" fill="#236477"/>
<path d="M251.038 241.653L235.224 244.737C234.286 244.919 233.314 244.721 232.522 244.186C231.73 243.651 231.181 242.823 230.998 241.884L229.782 235.633C229.6 234.693 229.798 233.72 230.332 232.927C230.866 232.133 231.693 231.584 232.631 231.4L248.445 228.316C249.383 228.134 250.355 228.332 251.147 228.867C251.939 229.402 252.488 230.23 252.671 231.169L253.887 237.42C254.068 238.36 253.871 239.333 253.337 240.127C252.802 240.92 251.976 241.469 251.038 241.653Z" fill="white"/>
<path d="M247.874 234.267L235.805 236.621C235.584 236.664 235.355 236.617 235.169 236.492C234.982 236.366 234.854 236.171 234.811 235.95C234.768 235.729 234.814 235.5 234.94 235.313C235.065 235.126 235.26 234.997 235.481 234.954L247.55 232.6C247.659 232.579 247.771 232.579 247.881 232.601C247.99 232.623 248.094 232.667 248.186 232.729C248.278 232.791 248.358 232.871 248.419 232.964C248.481 233.057 248.523 233.162 248.545 233.271C248.566 233.381 248.566 233.493 248.543 233.603C248.521 233.712 248.478 233.816 248.415 233.908C248.353 234.001 248.273 234.08 248.18 234.142C248.087 234.203 247.983 234.246 247.874 234.267Z" fill="#236477"/>
<path d="M245.528 237.753L239.286 238.97C239.177 238.992 239.064 238.991 238.955 238.969C238.846 238.947 238.742 238.903 238.65 238.841C238.558 238.779 238.478 238.699 238.417 238.606C238.355 238.513 238.313 238.409 238.292 238.299C238.27 238.19 238.271 238.077 238.293 237.968C238.315 237.858 238.358 237.755 238.421 237.662C238.483 237.57 238.563 237.49 238.656 237.429C238.748 237.367 238.852 237.324 238.962 237.303L245.204 236.086C245.425 236.043 245.654 236.089 245.84 236.215C246.027 236.341 246.156 236.536 246.199 236.757C246.242 236.978 246.195 237.207 246.07 237.394C245.944 237.581 245.749 237.71 245.528 237.753H245.528Z" fill="#236477"/>
<path d="M261.974 219.967V224.425H221.695V219.967C221.695 219.521 221.783 219.079 221.953 218.667C222.124 218.255 222.374 217.88 222.689 217.565C223.003 217.249 223.377 216.999 223.789 216.828C224.201 216.658 224.642 216.57 225.087 216.57H258.582C259.027 216.57 259.468 216.658 259.88 216.828C260.292 216.999 260.666 217.249 260.981 217.565C261.296 217.88 261.545 218.255 261.716 218.667C261.886 219.079 261.974 219.521 261.974 219.967Z" fill="#3F3D56"/>
<path d="M257.568 222.293C257.851 221.831 258.233 221.436 258.685 221.138C259.137 220.839 259.65 220.643 260.186 220.564C260.722 220.485 261.269 220.525 261.788 220.681C262.307 220.836 262.785 221.104 263.19 221.465L270.816 217.776L274.185 221.87L263.342 226.928C262.692 227.569 261.83 227.948 260.919 227.994C260.008 228.041 259.111 227.751 258.399 227.179C257.687 226.608 257.21 225.795 257.056 224.895C256.903 223.994 257.085 223.068 257.568 222.293Z" fill="#FFB8B8"/>
<path d="M268.161 226.255C267.786 226.255 267.421 226.128 267.126 225.896C266.831 225.663 266.623 225.338 266.535 224.972L265.427 220.361C265.343 220.014 265.372 219.649 265.51 219.32C265.648 218.991 265.888 218.715 266.194 218.532L272.875 214.528L269.46 202.007C269.219 201.117 269.272 200.172 269.609 199.315H269.61C269.932 198.502 270.497 197.808 271.227 197.327C271.957 196.847 272.817 196.604 273.69 196.631C274.563 196.658 275.407 196.953 276.107 197.477C276.806 198.002 277.327 198.729 277.599 199.56L281.369 211.089C281.832 212.494 281.836 214.011 281.38 215.418C280.923 216.826 280.031 218.051 278.831 218.916L269.141 225.937C268.856 226.144 268.513 226.255 268.161 226.255Z" fill="#2F2E41"/>
<path d="M279.201 317H238.886C238.781 317 238.681 316.958 238.606 316.884C238.532 316.81 238.491 316.709 238.491 316.604C238.491 316.499 238.532 316.399 238.606 316.324C238.681 316.25 238.781 316.208 238.886 316.208H279.201C279.306 316.208 279.406 316.25 279.48 316.324C279.554 316.399 279.596 316.499 279.596 316.604C279.596 316.709 279.554 316.81 279.48 316.884C279.406 316.958 279.306 317 279.201 317Z" fill="#CCCCCC"/>
</g>
<defs>
<clipPath id="clip0">
<rect width="349" height="317" fill="white"/>
</clipPath>
</defs>
</svg>
