<svg width="520" height="528" viewBox="0 0 520 528" fill="none" xmlns="http://www.w3.org/2000/svg">
<path d="M362.715 64.4093L361.719 65.424L430.077 128.528L431.073 127.513L362.715 64.4093Z" fill="#E6E6E6"/>
<path d="M431.183 120.671L429.739 120.755L430.175 127.649L423.051 127.567L423.035 128.968L431.712 129.068L431.183 120.671Z" fill="#E6E6E6"/>
<path d="M369.758 63.9685L369.742 65.3698L362.619 65.2868L363.054 72.181L361.61 72.2656L361.083 63.8679L369.758 63.9685Z" fill="#E6E6E6"/>
<path d="M396.396 104.173C400.784 104.173 404.342 100.724 404.342 96.4686C404.342 92.2136 400.784 88.7642 396.396 88.7642C392.007 88.7642 388.45 92.2136 388.45 96.4686C388.45 100.724 392.007 104.173 396.396 104.173Z" fill="#E6E6E6"/>
<path d="M158.73 64.4094L90.3713 127.513L91.3676 128.528L159.726 65.4241L158.73 64.4094Z" fill="#E6E6E6"/>
<path d="M89.7336 129.068L98.4101 128.968L98.3937 127.567L91.2705 127.649L91.7061 120.755L90.2626 120.671L89.7336 129.068Z" fill="#E6E6E6"/>
<path d="M160.362 63.8679L159.834 72.2656L158.391 72.181L158.826 65.2868L151.702 65.3698L151.687 63.9685L160.362 63.8679Z" fill="#E6E6E6"/>
<path d="M125.049 104.173C129.437 104.173 132.995 100.724 132.995 96.4686C132.995 92.2136 129.437 88.7642 125.049 88.7642C120.66 88.7642 117.103 92.2136 117.103 96.4686C117.103 100.724 120.66 104.173 125.049 104.173Z" fill="#E6E6E6"/>
<path d="M319.956 159.693H200.044C198.321 159.691 196.668 159.026 195.449 157.845C194.23 156.663 193.545 155.061 193.543 153.389V6.30367C193.545 4.63242 194.23 3.03017 195.449 1.84841C196.668 0.666655 198.321 0.00190322 200.044 0H319.956C321.68 0.00190322 323.332 0.666655 324.551 1.84841C325.77 3.03017 326.455 4.63242 326.457 6.30367V153.389C326.455 155.061 325.77 156.663 324.551 157.845C323.332 159.026 321.68 159.691 319.956 159.693ZM200.044 1.40082C198.704 1.40228 197.418 1.9193 196.47 2.83844C195.522 3.75759 194.989 5.0038 194.988 6.30367V153.389C194.989 154.689 195.522 155.935 196.47 156.855C197.418 157.774 198.704 158.291 200.044 158.292H319.956C321.297 158.291 322.582 157.774 323.53 156.855C324.478 155.935 325.011 154.689 325.012 153.389V6.30367C325.011 5.0038 324.478 3.75759 323.53 2.83844C322.582 1.9193 321.297 1.40228 319.956 1.40082H200.044Z" fill="#3F3D56"/>
<path d="M250.025 70.7003H223.63C222.768 70.6994 221.942 70.3671 221.333 69.7762C220.723 69.1853 220.381 68.3841 220.38 67.5485V37.3471C220.381 36.5115 220.723 35.7104 221.333 35.1195C221.942 34.5286 222.768 34.1962 223.63 34.1953H250.025C250.887 34.1962 251.713 34.5286 252.323 35.1195C252.932 35.7104 253.275 36.5115 253.276 37.3471V67.5485C253.275 68.3841 252.932 69.1853 252.323 69.7762C251.713 70.367 250.887 70.6994 250.025 70.7003Z" fill="#236477"/>
<path d="M301.313 84.7085H274.918C274.056 84.7076 273.23 84.3752 272.62 83.7843C272.011 83.1934 271.668 82.3923 271.667 81.5567V51.3553C271.668 50.5197 272.011 49.7185 272.62 49.1277C273.23 48.5368 274.056 48.2044 274.918 48.2035H301.313C302.174 48.2044 303.001 48.5368 303.61 49.1277C304.219 49.7185 304.562 50.5197 304.563 51.3553V81.5567C304.562 82.3923 304.219 83.1934 303.61 83.7843C303.001 84.3752 302.174 84.7076 301.313 84.7085Z" fill="#CCCCCC"/>
<path d="M260.138 127.433H233.743C232.881 127.433 232.055 127.1 231.446 126.509C230.836 125.918 230.493 125.117 230.492 124.282V94.0803C230.493 93.2447 230.836 92.4435 231.446 91.8527C232.055 91.2618 232.881 90.9294 233.743 90.9285H260.138C261 90.9294 261.826 91.2618 262.436 91.8527C263.045 92.4435 263.388 93.2447 263.389 94.0803V124.282C263.388 125.117 263.045 125.918 262.436 126.509C261.826 127.1 261 127.433 260.138 127.433Z" fill="#FF6584"/>
<path d="M513.499 310.933H393.587C391.864 310.931 390.211 310.267 388.992 309.085C387.774 307.903 387.088 306.301 387.086 304.63V157.544C387.088 155.873 387.774 154.27 388.992 153.089C390.211 151.907 391.864 151.242 393.587 151.24H513.499C515.223 151.242 516.875 151.907 518.094 153.089C519.313 154.27 519.998 155.873 520 157.544V304.63C519.998 306.301 519.313 307.903 518.094 309.085C516.875 310.267 515.223 310.931 513.499 310.933ZM393.587 152.641C392.247 152.643 390.961 153.16 390.013 154.079C389.065 154.998 388.532 156.244 388.531 157.544V304.63C388.532 305.929 389.065 307.176 390.013 308.095C390.961 309.014 392.247 309.531 393.587 309.532H513.499C514.839 309.531 516.125 309.014 517.073 308.095C518.021 307.176 518.554 305.929 518.555 304.63V157.544C518.554 156.244 518.021 154.998 517.073 154.079C516.125 153.16 514.839 152.643 513.499 152.641H393.587Z" fill="#3F3D56"/>
<path d="M474.13 183.809H432.956C432.189 183.809 431.454 183.514 430.912 182.989C430.371 182.463 430.066 181.751 430.066 181.008C430.066 180.265 430.371 179.552 430.912 179.027C431.454 178.501 432.189 178.206 432.956 178.206H474.13C474.897 178.206 475.631 178.501 476.173 179.027C476.715 179.552 477.02 180.265 477.02 181.008C477.02 181.751 476.715 182.463 476.173 182.989C475.631 183.514 474.897 183.809 474.13 183.809Z" fill="#236477"/>
<path d="M494.356 210.425H412.73C412.35 210.425 411.974 210.353 411.622 210.213C411.271 210.072 410.952 209.866 410.683 209.606C410.414 209.346 410.201 209.037 410.056 208.696C409.91 208.356 409.835 207.992 409.835 207.623C409.835 207.255 409.91 206.89 410.056 206.55C410.201 206.21 410.414 205.901 410.683 205.64C410.952 205.38 411.271 205.174 411.622 205.033C411.974 204.893 412.35 204.821 412.73 204.822H494.356C494.736 204.821 495.112 204.893 495.464 205.033C495.815 205.174 496.134 205.38 496.403 205.64C496.672 205.901 496.885 206.21 497.03 206.55C497.176 206.89 497.251 207.255 497.251 207.623C497.251 207.992 497.176 208.356 497.03 208.696C496.885 209.037 496.672 209.346 496.403 209.606C496.134 209.866 495.815 210.072 495.464 210.213C495.112 210.353 494.736 210.425 494.356 210.425Z" fill="#CCCCCC"/>
<path d="M494.356 225.133H412.73C412.35 225.134 411.974 225.062 411.622 224.921C411.271 224.781 410.952 224.575 410.683 224.314C410.414 224.054 410.201 223.745 410.056 223.405C409.91 223.065 409.835 222.7 409.835 222.332C409.835 221.963 409.91 221.599 410.056 221.258C410.201 220.918 410.414 220.609 410.683 220.349C410.952 220.089 411.271 219.882 411.622 219.742C411.974 219.601 412.35 219.529 412.73 219.53H494.356C494.736 219.529 495.112 219.601 495.464 219.742C495.815 219.882 496.134 220.089 496.403 220.349C496.672 220.609 496.885 220.918 497.03 221.258C497.176 221.599 497.251 221.963 497.251 222.332C497.251 222.7 497.176 223.065 497.03 223.405C496.885 223.745 496.672 224.054 496.403 224.314C496.134 224.575 495.815 224.781 495.464 224.921C495.112 225.062 494.736 225.134 494.356 225.133Z" fill="#CCCCCC"/>
<path d="M494.356 239.842H412.73C412.35 239.843 411.974 239.771 411.622 239.63C411.271 239.49 410.952 239.283 410.683 239.023C410.414 238.763 410.201 238.454 410.056 238.114C409.91 237.773 409.835 237.409 409.835 237.04C409.835 236.672 409.91 236.307 410.056 235.967C410.201 235.627 410.414 235.318 410.683 235.058C410.952 234.797 411.271 234.591 411.622 234.451C411.974 234.31 412.35 234.238 412.73 234.239H494.356C494.736 234.238 495.112 234.31 495.464 234.451C495.815 234.591 496.134 234.797 496.403 235.058C496.672 235.318 496.885 235.627 497.03 235.967C497.176 236.307 497.251 236.672 497.251 237.04C497.251 237.409 497.176 237.773 497.03 238.114C496.885 238.454 496.672 238.763 496.403 239.023C496.134 239.283 495.815 239.49 495.464 239.63C495.112 239.771 494.736 239.843 494.356 239.842Z" fill="#CCCCCC"/>
<path d="M494.356 254.55H412.73C412.35 254.551 411.974 254.479 411.622 254.339C411.271 254.198 410.952 253.992 410.683 253.732C410.414 253.471 410.201 253.162 410.056 252.822C409.91 252.482 409.835 252.117 409.835 251.749C409.835 251.38 409.91 251.016 410.056 250.676C410.201 250.335 410.414 250.026 410.683 249.766C410.952 249.506 411.271 249.3 411.622 249.159C411.974 249.019 412.35 248.947 412.73 248.947H494.356C494.736 248.947 495.112 249.019 495.464 249.159C495.815 249.3 496.134 249.506 496.403 249.766C496.672 250.026 496.885 250.335 497.03 250.676C497.176 251.016 497.251 251.38 497.251 251.749C497.251 252.117 497.176 252.482 497.03 252.822C496.885 253.162 496.672 253.471 496.403 253.732C496.134 253.992 495.815 254.198 495.464 254.339C495.112 254.479 494.736 254.551 494.356 254.55Z" fill="#CCCCCC"/>
<path d="M494.356 269.259H412.73C412.35 269.26 411.974 269.188 411.622 269.047C411.271 268.907 410.952 268.7 410.683 268.44C410.414 268.18 410.201 267.871 410.056 267.531C409.91 267.19 409.835 266.826 409.835 266.457C409.835 266.089 409.91 265.724 410.056 265.384C410.201 265.044 410.414 264.735 410.683 264.475C410.952 264.214 411.271 264.008 411.622 263.868C411.974 263.727 412.35 263.655 412.73 263.656H494.356C494.736 263.655 495.112 263.727 495.464 263.868C495.815 264.008 496.134 264.214 496.403 264.475C496.672 264.735 496.885 265.044 497.03 265.384C497.176 265.724 497.251 266.089 497.251 266.457C497.251 266.826 497.176 267.19 497.03 267.531C496.885 267.871 496.672 268.18 496.403 268.44C496.134 268.7 495.815 268.907 495.464 269.047C495.112 269.188 494.736 269.26 494.356 269.259Z" fill="#CCCCCC"/>
<path d="M494.356 283.968H412.73C412.35 283.968 411.974 283.896 411.622 283.756C411.271 283.615 410.952 283.409 410.683 283.149C410.414 282.889 410.201 282.579 410.056 282.239C409.91 281.899 409.835 281.534 409.835 281.166C409.835 280.798 409.91 280.433 410.056 280.093C410.201 279.753 410.414 279.443 410.683 279.183C410.952 278.923 411.271 278.717 411.622 278.576C411.974 278.436 412.35 278.364 412.73 278.364H494.356C494.736 278.364 495.112 278.436 495.464 278.576C495.815 278.717 496.134 278.923 496.403 279.183C496.672 279.443 496.885 279.753 497.03 280.093C497.176 280.433 497.251 280.798 497.251 281.166C497.251 281.534 497.176 281.899 497.03 282.239C496.885 282.579 496.672 282.889 496.403 283.149C496.134 283.409 495.815 283.615 495.464 283.756C495.112 283.896 494.736 283.968 494.356 283.968Z" fill="#CCCCCC"/>
<path d="M126.413 310.933H6.50123C4.7776 310.931 3.12512 310.267 1.90633 309.085C0.687535 307.903 0.00196058 306.301 0 304.63V157.544C0.00196058 155.873 0.687535 154.27 1.90633 153.089C3.12512 151.907 4.7776 151.242 6.50123 151.24H126.413C128.137 151.242 129.789 151.907 131.008 153.089C132.227 154.27 132.912 155.873 132.914 157.544V304.63C132.912 306.301 132.227 307.903 131.008 309.085C129.789 310.267 128.137 310.931 126.413 310.933ZM6.50123 152.641C5.16062 152.643 3.87536 153.16 2.9274 154.079C1.97945 154.998 1.44621 156.244 1.44471 157.544V304.63C1.44621 305.929 1.97945 307.176 2.9274 308.095C3.87536 309.014 5.16062 309.531 6.50123 309.532H126.413C127.754 309.531 129.039 309.014 129.987 308.095C130.935 307.176 131.468 305.929 131.469 304.63V157.544C131.468 156.244 130.935 154.998 129.987 154.079C129.039 153.16 127.754 152.643 126.413 152.641H6.50123Z" fill="#3F3D56"/>
<path d="M107.396 185.967H71.2776C70.5113 185.967 69.7764 185.672 69.2345 185.147C68.6926 184.621 68.3882 183.909 68.3882 183.166C68.3882 182.423 68.6926 181.71 69.2345 181.185C69.7764 180.659 70.5113 180.364 71.2776 180.364H107.396C108.162 180.364 108.897 180.659 109.439 181.185C109.981 181.71 110.285 182.423 110.285 183.166C110.285 183.909 109.981 184.621 109.439 185.147C108.897 185.672 108.162 185.967 107.396 185.967Z" fill="#3F3D56"/>
<path d="M107.396 200.676H71.2776C70.5113 200.676 69.7764 200.381 69.2345 199.855C68.6926 199.33 68.3882 198.617 68.3882 197.874C68.3882 197.131 68.6926 196.418 69.2345 195.893C69.7764 195.368 70.5113 195.073 71.2776 195.073H107.396C108.162 195.073 108.897 195.368 109.439 195.893C109.981 196.418 110.285 197.131 110.285 197.874C110.285 198.617 109.981 199.33 109.439 199.855C108.897 200.381 108.162 200.676 107.396 200.676Z" fill="#3F3D56"/>
<path d="M52.7453 209.051H26.3503C25.4884 209.05 24.6622 208.718 24.0528 208.127C23.4434 207.536 23.1006 206.735 23.0996 205.899V175.698C23.1006 174.862 23.4434 174.061 24.0528 173.47C24.6622 172.879 25.4884 172.547 26.3503 172.546H52.7453C53.6071 172.547 54.4333 172.879 55.0427 173.47C55.6521 174.061 55.9949 174.862 55.9959 175.698V205.899C55.9949 206.735 55.6521 207.536 55.0427 208.127C54.4333 208.718 53.6071 209.05 52.7453 209.051Z" fill="#236477"/>
<path d="M107.145 230.793H25.5187C25.1388 230.794 24.7626 230.722 24.4114 230.582C24.0603 230.441 23.7412 230.235 23.4723 229.975C23.2035 229.714 22.9902 229.405 22.8447 229.065C22.6992 228.725 22.6243 228.36 22.6243 227.992C22.6243 227.623 22.6992 227.259 22.8447 226.919C22.9902 226.578 23.2035 226.269 23.4723 226.009C23.7412 225.749 24.0603 225.543 24.4114 225.402C24.7626 225.262 25.1388 225.19 25.5187 225.19H107.145C107.525 225.19 107.901 225.262 108.253 225.402C108.604 225.543 108.923 225.749 109.192 226.009C109.461 226.269 109.674 226.578 109.819 226.919C109.965 227.259 110.04 227.623 110.04 227.992C110.04 228.36 109.965 228.725 109.819 229.065C109.674 229.405 109.461 229.714 109.192 229.975C108.923 230.235 108.604 230.441 108.253 230.582C107.901 230.722 107.525 230.794 107.145 230.793Z" fill="#CCCCCC"/>
<path d="M107.145 245.502H25.5187C25.1388 245.503 24.7626 245.431 24.4114 245.29C24.0603 245.15 23.7412 244.943 23.4723 244.683C23.2035 244.423 22.9902 244.114 22.8447 243.774C22.6992 243.433 22.6243 243.069 22.6243 242.7C22.6243 242.332 22.6992 241.967 22.8447 241.627C22.9902 241.287 23.2035 240.978 23.4723 240.718C23.7412 240.457 24.0603 240.251 24.4114 240.111C24.7626 239.97 25.1388 239.898 25.5187 239.899H107.145C107.525 239.898 107.901 239.97 108.253 240.111C108.604 240.251 108.923 240.457 109.192 240.718C109.461 240.978 109.674 241.287 109.819 241.627C109.965 241.967 110.04 242.332 110.04 242.7C110.04 243.069 109.965 243.433 109.819 243.774C109.674 244.114 109.461 244.423 109.192 244.683C108.923 244.943 108.604 245.15 108.253 245.29C107.901 245.431 107.525 245.503 107.145 245.502Z" fill="#CCCCCC"/>
<path d="M107.145 260.211H25.5187C25.1388 260.211 24.7626 260.139 24.4114 259.999C24.0603 259.858 23.7412 259.652 23.4723 259.392C23.2035 259.131 22.9902 258.822 22.8447 258.482C22.6992 258.142 22.6243 257.777 22.6243 257.409C22.6243 257.041 22.6992 256.676 22.8447 256.336C22.9902 255.995 23.2035 255.686 23.4723 255.426C23.7412 255.166 24.0603 254.96 24.4114 254.819C24.7626 254.679 25.1388 254.607 25.5187 254.607H107.145C107.525 254.607 107.901 254.679 108.253 254.819C108.604 254.96 108.923 255.166 109.192 255.426C109.461 255.686 109.674 255.995 109.819 256.336C109.965 256.676 110.04 257.041 110.04 257.409C110.04 257.777 109.965 258.142 109.819 258.482C109.674 258.822 109.461 259.131 109.192 259.392C108.923 259.652 108.604 259.858 108.253 259.999C107.901 260.139 107.525 260.211 107.145 260.211Z" fill="#CCCCCC"/>
<path d="M107.145 274.919H25.5187C25.1388 274.92 24.7626 274.848 24.4114 274.707C24.0603 274.567 23.7412 274.36 23.4723 274.1C23.2035 273.84 22.9902 273.531 22.8447 273.191C22.6992 272.85 22.6243 272.486 22.6243 272.117C22.6243 271.749 22.6992 271.384 22.8447 271.044C22.9902 270.704 23.2035 270.395 23.4723 270.135C23.7412 269.874 24.0603 269.668 24.4114 269.528C24.7626 269.387 25.1388 269.315 25.5187 269.316H107.145C107.525 269.315 107.901 269.387 108.253 269.528C108.604 269.668 108.923 269.874 109.192 270.135C109.461 270.395 109.674 270.704 109.819 271.044C109.965 271.384 110.04 271.749 110.04 272.117C110.04 272.486 109.965 272.85 109.819 273.191C109.674 273.531 109.461 273.84 109.192 274.1C108.923 274.36 108.604 274.567 108.253 274.707C107.901 274.848 107.525 274.92 107.145 274.919Z" fill="#CCCCCC"/>
<path d="M107.145 289.628H25.5187C25.1388 289.628 24.7626 289.556 24.4114 289.416C24.0603 289.275 23.7412 289.069 23.4723 288.809C23.2035 288.549 22.9902 288.24 22.8447 287.899C22.6992 287.559 22.6243 287.194 22.6243 286.826C22.6243 286.458 22.6992 286.093 22.8447 285.753C22.9902 285.413 23.2035 285.103 23.4723 284.843C23.7412 284.583 24.0603 284.377 24.4114 284.236C24.7626 284.096 25.1388 284.024 25.5187 284.024H107.145C107.525 284.024 107.901 284.096 108.253 284.236C108.604 284.377 108.923 284.583 109.192 284.843C109.461 285.103 109.674 285.413 109.819 285.753C109.965 286.093 110.04 286.458 110.04 286.826C110.04 287.194 109.965 287.559 109.819 287.899C109.674 288.24 109.461 288.549 109.192 288.809C108.923 289.069 108.604 289.275 108.253 289.416C107.901 289.556 107.525 289.628 107.145 289.628Z" fill="#CCCCCC"/>
<path d="M171.745 396.183V365.982C171.746 365.146 172.088 364.345 172.698 363.754C173.307 363.163 174.133 362.831 174.995 362.83H201.39C202.252 362.831 203.078 363.163 203.688 363.754C204.297 364.345 204.64 365.146 204.641 365.982V396.183C204.64 397.019 204.297 397.82 203.688 398.411C203.078 399.002 202.252 399.334 201.39 399.335H174.995C174.133 399.334 173.307 399.002 172.698 398.411C172.088 397.82 171.746 397.019 171.745 396.183Z" fill="#E6E6E6"/>
<path d="M181.252 386.126V355.925C181.253 355.089 181.596 354.288 182.206 353.697C182.815 353.106 183.641 352.774 184.503 352.773H210.898C211.76 352.774 212.586 353.106 213.196 353.697C213.805 354.288 214.148 355.089 214.149 355.925V386.126C214.148 386.962 213.805 387.763 213.196 388.354C212.586 388.945 211.76 389.277 210.898 389.278H184.503C183.641 389.277 182.815 388.945 182.206 388.354C181.596 387.763 181.253 386.962 181.252 386.126Z" fill="#236477"/>
<path d="M299.574 376.463C298.581 375.906 297.726 375.145 297.069 374.234C296.411 373.322 295.969 372.282 295.771 371.186C295.573 370.091 295.626 368.966 295.925 367.892C296.224 366.819 296.762 365.822 297.501 364.971L289.32 306.985L306.363 307.796L309.038 364.356C310.429 365.655 311.281 367.404 311.431 369.27C311.581 371.137 311.019 372.993 309.853 374.485C308.686 375.978 306.995 377.003 305.101 377.368C303.207 377.732 301.24 377.41 299.574 376.463V376.463Z" fill="#A0616A"/>
<path d="M308.702 308.569C308.352 308.968 307.905 309.275 307.401 309.461L292.084 315.129C291.315 315.414 290.463 315.402 289.702 315.095C288.942 314.789 288.332 314.212 287.997 313.482L274.43 283.918C273.127 281.176 272.905 278.066 273.806 275.176C274.472 273.113 275.7 271.263 277.36 269.82C279.02 268.377 281.051 267.395 283.238 266.977C284.92 266.642 286.657 266.666 288.329 267.047C290.332 267.48 292.192 268.391 293.741 269.696C295.29 271.002 296.479 272.661 297.2 274.524L309.263 305.442C309.466 305.964 309.521 306.529 309.422 307.079C309.323 307.629 309.075 308.144 308.702 308.569Z" fill="#CCCCCC"/>
<path d="M228.889 517.993H218.292L214.45 478.174L228.891 478.362L228.889 517.993Z" fill="#A0616A"/>
<path d="M210.723 515.057H231.16V527.534H197.855C197.855 525.895 198.188 524.273 198.835 522.759C199.481 521.245 200.429 519.87 201.624 518.711C202.819 517.553 204.237 516.634 205.799 516.007C207.36 515.38 209.033 515.057 210.723 515.057Z" fill="#2F2E41"/>
<path d="M278.158 517.993H267.561L262.52 478.361L278.159 478.362L278.158 517.993Z" fill="#A0616A"/>
<path d="M259.992 515.057H280.429V527.534H247.124C247.124 525.895 247.457 524.273 248.103 522.759C248.75 521.245 249.698 519.87 250.893 518.711C252.088 517.553 253.506 516.634 255.067 516.007C256.629 515.38 258.302 515.057 259.992 515.057Z" fill="#2F2E41"/>
<path d="M279.49 503.893L262.847 502.698C261.9 502.629 261.012 502.227 260.35 501.568C259.687 500.909 259.296 500.038 259.249 499.119L255.538 424.754C255.502 424.04 255.199 423.364 254.686 422.851C254.172 422.339 253.483 422.026 252.749 421.971C252.014 421.916 251.284 422.123 250.695 422.553C250.107 422.984 249.7 423.607 249.553 424.307L234.071 497.563C233.879 498.464 233.355 499.266 232.596 499.819C231.837 500.372 230.896 500.637 229.95 500.565L214.905 499.398C214.39 499.358 213.888 499.218 213.428 498.988C212.969 498.758 212.561 498.441 212.23 498.056C211.898 497.671 211.649 497.225 211.497 496.746C211.346 496.267 211.294 495.763 211.345 495.264L225.303 359.931C225.357 359.402 225.526 358.89 225.799 358.429C226.072 357.968 226.443 357.568 226.886 357.256C227.33 356.943 227.836 356.725 228.373 356.616C228.909 356.506 229.464 356.508 229.999 356.621L283.076 367.809C283.955 367.996 284.741 368.472 285.299 369.157C285.857 369.841 286.154 370.692 286.139 371.564L283.667 500.202C283.647 501.188 283.23 502.128 282.505 502.82C281.78 503.512 280.804 503.901 279.787 503.903C279.688 503.903 279.589 503.899 279.49 503.893Z" fill="#2F2E41"/>
<path d="M264.93 246.776C276.655 246.776 286.159 237.56 286.159 226.192C286.159 214.823 276.655 205.607 264.93 205.607C253.205 205.607 243.7 214.823 243.7 226.192C243.7 237.56 253.205 246.776 264.93 246.776Z" fill="#A0616A"/>
<path d="M231.991 370.367C229.949 368.592 228.329 366.409 227.241 363.969C226.152 361.529 225.622 358.889 225.686 356.232C225.686 326.646 252.098 260.548 252.926 258.485C253.006 257.989 253.703 257.774 257.359 255.379C261.018 252.983 266.292 252.615 273.038 254.285C273.724 254.455 274.348 254.805 274.844 255.295C275.339 255.785 275.686 256.398 275.847 257.066L277.102 258.824C277.211 259.27 277.427 259.685 277.732 260.035C278.036 260.385 278.421 260.661 278.856 260.841C284.296 263.063 301.587 273.31 295.695 311.874C290.222 347.697 288.001 368.764 287.3 376.16C287.217 377.038 286.82 377.859 286.177 378.482C285.534 379.104 284.686 379.489 283.78 379.567C281.113 379.799 276.536 380.107 271.083 380.107C258.446 380.107 241.111 378.453 231.991 370.367Z" fill="#CCCCCC"/>
<path d="M206.623 359.406C206.118 358.408 205.845 357.314 205.824 356.202C205.802 355.09 206.032 353.987 206.497 352.97C206.963 351.954 207.653 351.048 208.518 350.318C209.383 349.588 210.403 349.051 211.506 348.744L238.036 296.174L251.722 306.056L221.44 354.467C221.848 356.297 221.55 358.209 220.602 359.84C219.653 361.471 218.121 362.709 216.294 363.318C214.468 363.927 212.475 363.865 210.692 363.144C208.91 362.423 207.462 361.093 206.623 359.406L206.623 359.406Z" fill="#A0616A"/>
<path d="M253.22 307.961C252.701 308.104 252.153 308.117 251.627 307.999L235.652 304.431C234.85 304.251 234.149 303.781 233.693 303.116C233.238 302.451 233.063 301.641 233.204 300.855L238.928 268.976C239.423 265.995 241.026 263.293 243.435 261.38C245.174 260.027 247.256 259.154 249.464 258.852C251.671 258.551 253.922 258.833 255.978 259.668C257.568 260.298 258.997 261.256 260.165 262.476C261.58 263.918 262.601 265.679 263.137 267.6C263.673 269.521 263.707 271.541 263.235 273.478L255.484 305.668C255.352 306.211 255.073 306.711 254.674 307.114C254.276 307.517 253.774 307.81 253.22 307.961Z" fill="#CCCCCC"/>
<path d="M259.959 244.79C258.926 243.768 258.163 242.519 257.736 241.149C257.308 239.779 257.229 238.329 257.505 236.923C258.245 233.169 258.68 230.712 258.762 229.819C259.044 226.762 255.857 224.287 252.703 223.893C252.581 223.878 252.479 223.867 252.393 223.861C252.474 223.937 252.56 224.015 252.636 224.084C253.235 224.63 253.98 225.309 253.803 226.01C253.696 226.432 253.299 226.732 252.587 226.924C247.655 228.263 243.856 227.034 240.633 223.055C239.726 221.925 239.103 220.606 238.813 219.202C237.658 213.708 240.735 209.025 243.52 206.064C245.816 203.623 249.539 200.659 254.233 200.405C257.884 200.208 262.225 202.245 263.524 205.915C264.137 205.035 264.953 204.305 265.907 203.783C266.862 203.261 267.928 202.962 269.023 202.91C271.515 202.857 273.968 203.519 276.074 204.812C286.368 210.529 290.792 224.149 285.735 234.554C282.554 241.098 275.662 245.971 267.748 247.269C267.252 247.351 266.751 247.392 266.248 247.392C265.073 247.39 263.911 247.159 262.83 246.712C261.75 246.265 260.773 245.611 259.959 244.79Z" fill="#2F2E41"/>
<path d="M160.407 528H328.958C329.187 528 329.407 527.912 329.569 527.755C329.731 527.597 329.822 527.384 329.822 527.162C329.822 526.94 329.731 526.727 329.569 526.569C329.407 526.412 329.187 526.324 328.958 526.324H160.407C160.178 526.324 159.958 526.412 159.796 526.569C159.634 526.727 159.543 526.94 159.543 527.162C159.543 527.384 159.634 527.597 159.796 527.755C159.958 527.912 160.178 528 160.407 528Z" fill="#3F3D56"/>
</svg>
