<?xml version="1.0" encoding="UTF-8" standalone="no"?><!DOCTYPE svg PUBLIC "-//W3C//DTD SVG 1.1//EN" "http://www.w3.org/Graphics/SVG/1.1/DTD/svg11.dtd"><svg width="100%" height="100%" viewBox="0 0 936 192" version="1.1" xmlns="http://www.w3.org/2000/svg" xmlns:xlink="http://www.w3.org/1999/xlink" xml:space="preserve" xmlns:serif="http://www.serif.com/" style="fill-rule:evenodd;clip-rule:evenodd;stroke-linejoin:round;stroke-miterlimit:2;"><rect id="White-foreground" serif:id="White foreground" x="-48" y="-48" width="1032" height="288" style="fill:none;"/><g id="Logo"><path d="M263.765,113.011l0,40.589l-23.765,0l0,-115.2l44.995,0c8.661,0 16.279,1.582 22.854,4.747c6.575,3.165 11.632,7.661 15.17,13.49c3.539,5.829 5.308,12.462 5.308,19.899c0,11.288 -3.869,20.189 -11.605,26.703c-7.737,6.515 -18.445,9.772 -32.123,9.772l-20.834,0Zm0,-19.227l21.23,0c6.285,0 11.077,-1.477 14.378,-4.43c3.301,-2.954 4.951,-7.174 4.951,-12.66c0,-5.644 -1.663,-10.206 -4.991,-13.688c-3.327,-3.481 -7.921,-5.275 -13.783,-5.38l-21.785,0l0,36.158Z" style="fill:#fff;fill-rule:nonzero;"/><path d="M430.622,38.4l0,74.849c0,12.435 -3.947,22.27 -11.843,29.502c-7.895,7.233 -18.682,10.849 -32.36,10.849c-13.467,0 -24.161,-3.512 -32.083,-10.537c-7.921,-7.024 -11.961,-16.676 -12.12,-28.956l0,-75.707l23.765,0l0,75.005c0,7.44 1.809,12.865 5.427,16.273c3.617,3.408 8.621,5.112 15.011,5.112c13.362,0 20.148,-6.92 20.359,-20.761l0,-75.629l23.844,0Z" style="fill:#fff;fill-rule:nonzero;"/><path d="M538.305,153.6l-23.766,0l-46.262,-75.798l0,75.798l-23.765,0l0,-115.2l23.765,0l46.342,75.956l0,-75.956l23.686,0l0,115.2Z" style="fill:#fff;fill-rule:nonzero;"/><path d="M621.588,106.523l-45.629,0l0,47.077l-23.765,0l0,-115.2l75.098,0l0,19.226l-51.333,0l0,29.75l45.629,0l0,19.147Z" style="fill:#fff;fill-rule:nonzero;"/><path d="M691.088,90.303l24.002,-51.903l25.984,0l-37.866,73.424l0,41.776l-24.161,0l0,-41.776l-37.866,-73.424l26.062,0l23.845,51.903Z" style="fill:#fff;fill-rule:nonzero;"/><path d="M797.661,111.428l-18.933,0l0,42.172l-23.765,0l0,-115.2l42.856,0c13.626,0 24.135,3.032 31.529,9.098c7.393,6.066 11.09,14.638 11.09,25.715c0,7.859 -1.703,14.413 -5.11,19.661c-3.406,5.249 -8.568,9.429 -15.486,12.541l24.953,47.077l0,1.108l-25.508,0l-21.626,-42.172Zm-18.933,-19.226l19.17,0c5.968,0 10.589,-1.517 13.863,-4.55c3.275,-3.033 4.912,-7.213 4.912,-12.54c0,-5.433 -1.545,-9.706 -4.634,-12.818c-3.09,-3.112 -7.83,-4.668 -14.22,-4.668l-19.091,0l0,34.576Z" style="fill:#fff;fill-rule:nonzero;"/><path d="M928.078,103.675l-45.629,0l0,30.857l53.551,0l0,19.068l-77.316,0l0,-115.2l77.158,0l0,19.226l-53.393,0l0,27.455l45.629,0l0,18.594Z" style="fill:#fff;fill-rule:nonzero;"/></g><g id="Icon"><path id="Component-3" serif:id="Component 3" d="M172.801,76.8l-95.999,96l19.2,19.2l96,-96l-19.201,-19.2Z" style="fill:#fff;"/><path id="Component-2" serif:id="Component 2" d="M124.807,47.993l-9.593,-9.593l38.387,0l0,38.387l-9.593,-9.593l-86.406,86.406l-0.002,-0.002l-0.001,0.002l-57.599,-57.6l19.2,-19.2l38.4,38.4l67.207,-67.207Z" style="fill:#fff;"/><path id="Component-1" serif:id="Component 1" d="M96,0l-57.599,57.599l19.201,19.201l57.599,-57.6l-19.201,-19.2Z" style="fill:#fff;"/></g></svg>