<svg width="135" height="120" viewBox="0 0 135 120" fill="none" xmlns="http://www.w3.org/2000/svg">
<g clip-path="url(#clip0)">
<path d="M48.8722 0C41.8468 0 36.0197 4.80469 34.3515 11.2969C34.1635 11.2969 34.0226 11.25 33.8346 11.25C25.5404 11.25 18.797 17.9766 18.797 26.25C18.797 27.375 18.938 28.4766 19.1964 29.5312C12.3355 32.3438 7.5188 39.0469 7.5188 46.875C7.5188 49.8281 8.27068 52.5703 9.46898 55.0547C3.82989 58.2891 0 64.2891 0 71.25C0 79.0547 4.79323 85.7578 11.6071 88.5703C11.3957 89.6484 11.2782 90.75 11.2782 91.875C11.2782 101.203 18.844 108.75 28.1955 108.75C29.1588 108.75 30.0987 108.633 31.015 108.469C33.2707 115.148 39.5207 120 46.9925 120C56.344 120 63.9098 112.453 63.9098 103.125V15C63.9098 6.72656 57.1664 0 48.8722 0ZM135.338 71.25C135.338 64.2891 131.508 58.2891 125.869 55.0547C127.091 52.5703 127.82 49.8281 127.82 46.875C127.82 39.0469 123.003 32.3438 116.142 29.5312C116.377 28.4766 116.541 27.375 116.541 26.25C116.541 17.9766 109.798 11.25 101.504 11.25C101.316 11.25 101.151 11.2969 100.987 11.2969C99.3186 4.80469 93.4915 0 86.4662 0C78.172 0 71.4286 6.70312 71.4286 15V103.125C71.4286 112.453 78.9944 120 88.3459 120C95.8177 120 102.068 115.148 104.323 108.469C105.24 108.633 106.18 108.75 107.143 108.75C116.494 108.75 124.06 101.203 124.06 91.875C124.06 90.75 123.943 89.6484 123.731 88.5703C130.545 85.7578 135.338 79.0547 135.338 71.25Z" fill="#030095"/>
</g>
<defs>
<clipPath id="clip0">
<rect width="135" height="120" fill="white"/>
</clipPath>
</defs>
</svg>
