<svg xmlns="http://www.w3.org/2000/svg" viewBox="0 0 31.99 26.79">
  <title>inverted-quote</title>
  <path d="M19.13,6.43a6.47,6.47,0,0,1,1.76-4.52A5.72,5.72,0,0,1,25.26,0a6.56,6.56,0,0,1,4.82,1.91,6.73,6.73,0,0,1,1.91,5q0,10.71-9.18,19.9l-4.13-3.68q5.51-5,6.27-10.41a5.91,5.91,0,0,1-4.13-2A6.18,6.18,0,0,1,19.13,6.43ZM.46,6.43A6.47,6.47,0,0,1,2.22,1.91,5.7,5.7,0,0,1,6.58,0,6.54,6.54,0,0,1,11.4,1.91a6.74,6.74,0,0,1,1.92,5q0,10.71-9.19,19.9L0,23.11q5.51-5,6.28-10.41a5.94,5.94,0,0,1-4.14-2A6.17,6.17,0,0,1,.46,6.43Z" style="fill:rgb(124, 124, 124)" />
</svg>