<svg xmlns="http://www.w3.org/2000/svg" viewBox="0 0 31.99 26.79">
  <title>quotes_1</title>
  <path d="M12.86,20.36a6.45,6.45,0,0,1-1.76,4.51,5.69,5.69,0,0,1-4.36,1.92,6.53,6.53,0,0,1-4.83-1.92A6.73,6.73,0,0,1,0,19.9Q0,9.19,9.18,0l4.14,3.67Q7.8,8.73,7,14.08a5.92,5.92,0,0,1,4.13,2A6.14,6.14,0,0,1,12.86,20.36Zm18.67,0a6.45,6.45,0,0,1-1.76,4.51,5.68,5.68,0,0,1-4.36,1.92,6.51,6.51,0,0,1-4.82-1.92,6.7,6.7,0,0,1-1.92-5q0-10.71,9.19-19.9L32,3.67q-5.5,5.06-6.27,10.41a5.92,5.92,0,0,1,4.13,2A6.17,6.17,0,0,1,31.53,20.36Z" style="fill:rgb(124, 124, 124)" />
</svg>